<mxfile host="app.diagrams.net" modified="2024-06-04T15:55:42.056Z" agent="Mozilla/5.0 (Windows NT 10.0; Win64; x64) AppleWebKit/537.36 (KHTML, like Gecko) Chrome/125.0.0.0 Safari/537.36" etag="588p3eK8B-573t0mAbZJ" version="24.4.13" type="device">
  <diagram name="Page-1" id="-woLgOOHjnoY9XFlU5uN">
    <mxGraphModel dx="1967" dy="-581" grid="1" gridSize="10" guides="1" tooltips="1" connect="1" arrows="1" fold="1" page="1" pageScale="1" pageWidth="827" pageHeight="1169" math="0" shadow="0">
      <root>
        <mxCell id="0" />
        <mxCell id="1" parent="0" />
        <mxCell id="9hDXFsLS36bgd5yLtAdr-1" value="users" style="shape=table;startSize=30;container=1;collapsible=1;childLayout=tableLayout;fixedRows=1;rowLines=0;fontStyle=0;align=center;resizeLast=1;fontFamily=Times New Roman;fontSize=14;bottom=1;" parent="1" vertex="1">
          <mxGeometry x="300" y="1270" width="250" height="300" as="geometry">
            <mxRectangle x="120" y="110" width="110" height="30" as="alternateBounds" />
          </mxGeometry>
        </mxCell>
        <mxCell id="9hDXFsLS36bgd5yLtAdr-2" value="" style="shape=partialRectangle;collapsible=0;dropTarget=0;pointerEvents=0;fillColor=none;points=[[0,0.5],[1,0.5]];portConstraint=eastwest;top=0;left=0;right=0;bottom=1;fontFamily=Times New Roman;fontSize=14;fontStyle=0" parent="9hDXFsLS36bgd5yLtAdr-1" vertex="1">
          <mxGeometry y="30" width="250" height="30" as="geometry" />
        </mxCell>
        <mxCell id="9hDXFsLS36bgd5yLtAdr-3" value="PK" style="shape=partialRectangle;overflow=hidden;connectable=0;fillColor=none;top=0;left=0;bottom=0;right=0;fontStyle=0;fontFamily=Times New Roman;fontSize=14;" parent="9hDXFsLS36bgd5yLtAdr-2" vertex="1">
          <mxGeometry width="30" height="30" as="geometry">
            <mxRectangle width="30" height="30" as="alternateBounds" />
          </mxGeometry>
        </mxCell>
        <mxCell id="9hDXFsLS36bgd5yLtAdr-4" value="id" style="shape=partialRectangle;overflow=hidden;connectable=0;fillColor=none;top=0;left=0;bottom=0;right=0;align=left;spacingLeft=6;fontStyle=0;fontFamily=Times New Roman;fontSize=14;strokeColor=default;" parent="9hDXFsLS36bgd5yLtAdr-2" vertex="1">
          <mxGeometry x="30" width="220" height="30" as="geometry">
            <mxRectangle width="220" height="30" as="alternateBounds" />
          </mxGeometry>
        </mxCell>
        <mxCell id="9hDXFsLS36bgd5yLtAdr-5" value="" style="shape=partialRectangle;collapsible=0;dropTarget=0;pointerEvents=0;fillColor=none;points=[[0,0.5],[1,0.5]];portConstraint=eastwest;top=0;left=0;right=0;bottom=0;fontFamily=Times New Roman;fontSize=14;fontStyle=0" parent="9hDXFsLS36bgd5yLtAdr-1" vertex="1">
          <mxGeometry y="60" width="250" height="30" as="geometry" />
        </mxCell>
        <mxCell id="9hDXFsLS36bgd5yLtAdr-6" value="" style="shape=partialRectangle;overflow=hidden;connectable=0;fillColor=none;top=0;left=0;bottom=1;right=0;fontFamily=Times New Roman;fontSize=14;fontStyle=0" parent="9hDXFsLS36bgd5yLtAdr-5" vertex="1">
          <mxGeometry width="30" height="30" as="geometry">
            <mxRectangle width="30" height="30" as="alternateBounds" />
          </mxGeometry>
        </mxCell>
        <mxCell id="9hDXFsLS36bgd5yLtAdr-7" value="login" style="shape=partialRectangle;overflow=hidden;connectable=0;fillColor=none;top=0;left=0;bottom=1;right=0;align=left;spacingLeft=6;fontFamily=Times New Roman;fontSize=14;fontStyle=0" parent="9hDXFsLS36bgd5yLtAdr-5" vertex="1">
          <mxGeometry x="30" width="220" height="30" as="geometry">
            <mxRectangle width="220" height="30" as="alternateBounds" />
          </mxGeometry>
        </mxCell>
        <mxCell id="9hDXFsLS36bgd5yLtAdr-8" style="shape=partialRectangle;collapsible=0;dropTarget=0;pointerEvents=0;fillColor=none;points=[[0,0.5],[1,0.5]];portConstraint=eastwest;top=0;left=0;right=0;bottom=0;fontFamily=Times New Roman;fontSize=14;fontStyle=0" parent="9hDXFsLS36bgd5yLtAdr-1" vertex="1">
          <mxGeometry y="90" width="250" height="30" as="geometry" />
        </mxCell>
        <mxCell id="9hDXFsLS36bgd5yLtAdr-9" value="" style="shape=partialRectangle;overflow=hidden;connectable=0;fillColor=none;top=0;left=0;bottom=1;right=0;fontFamily=Times New Roman;fontSize=14;fontStyle=0" parent="9hDXFsLS36bgd5yLtAdr-8" vertex="1">
          <mxGeometry width="30" height="30" as="geometry">
            <mxRectangle width="30" height="30" as="alternateBounds" />
          </mxGeometry>
        </mxCell>
        <mxCell id="9hDXFsLS36bgd5yLtAdr-10" value="password" style="shape=partialRectangle;overflow=hidden;connectable=0;fillColor=none;top=0;left=0;bottom=1;right=0;align=left;spacingLeft=6;fontFamily=Times New Roman;fontSize=14;fontStyle=0" parent="9hDXFsLS36bgd5yLtAdr-8" vertex="1">
          <mxGeometry x="30" width="220" height="30" as="geometry">
            <mxRectangle width="220" height="30" as="alternateBounds" />
          </mxGeometry>
        </mxCell>
        <mxCell id="9hDXFsLS36bgd5yLtAdr-11" style="shape=partialRectangle;collapsible=0;dropTarget=0;pointerEvents=0;fillColor=none;points=[[0,0.5],[1,0.5]];portConstraint=eastwest;top=0;left=0;right=0;bottom=0;fontFamily=Times New Roman;fontSize=14;fontStyle=0" parent="9hDXFsLS36bgd5yLtAdr-1" vertex="1">
          <mxGeometry y="120" width="250" height="30" as="geometry" />
        </mxCell>
        <mxCell id="9hDXFsLS36bgd5yLtAdr-12" value="" style="shape=partialRectangle;overflow=hidden;connectable=0;fillColor=none;top=0;left=0;bottom=1;right=0;fontFamily=Times New Roman;fontSize=14;fontStyle=0" parent="9hDXFsLS36bgd5yLtAdr-11" vertex="1">
          <mxGeometry width="30" height="30" as="geometry">
            <mxRectangle width="30" height="30" as="alternateBounds" />
          </mxGeometry>
        </mxCell>
        <mxCell id="9hDXFsLS36bgd5yLtAdr-13" value="name" style="shape=partialRectangle;overflow=hidden;connectable=0;fillColor=none;top=0;left=0;bottom=1;right=0;align=left;spacingLeft=6;fontFamily=Times New Roman;fontSize=14;fontStyle=0" parent="9hDXFsLS36bgd5yLtAdr-11" vertex="1">
          <mxGeometry x="30" width="220" height="30" as="geometry">
            <mxRectangle width="220" height="30" as="alternateBounds" />
          </mxGeometry>
        </mxCell>
        <mxCell id="9hDXFsLS36bgd5yLtAdr-14" style="shape=partialRectangle;collapsible=0;dropTarget=0;pointerEvents=0;fillColor=none;points=[[0,0.5],[1,0.5]];portConstraint=eastwest;top=0;left=0;right=0;bottom=0;fontFamily=Times New Roman;fontSize=14;fontStyle=0" parent="9hDXFsLS36bgd5yLtAdr-1" vertex="1">
          <mxGeometry y="150" width="250" height="30" as="geometry" />
        </mxCell>
        <mxCell id="9hDXFsLS36bgd5yLtAdr-15" value="" style="shape=partialRectangle;overflow=hidden;connectable=0;fillColor=none;top=0;left=0;bottom=1;right=0;fontFamily=Times New Roman;fontSize=14;fontStyle=0" parent="9hDXFsLS36bgd5yLtAdr-14" vertex="1">
          <mxGeometry width="30" height="30" as="geometry">
            <mxRectangle width="30" height="30" as="alternateBounds" />
          </mxGeometry>
        </mxCell>
        <mxCell id="9hDXFsLS36bgd5yLtAdr-16" value="email" style="shape=partialRectangle;overflow=hidden;connectable=0;fillColor=none;top=0;left=0;bottom=1;right=0;align=left;spacingLeft=6;fontFamily=Times New Roman;fontSize=14;fontStyle=0" parent="9hDXFsLS36bgd5yLtAdr-14" vertex="1">
          <mxGeometry x="30" width="220" height="30" as="geometry">
            <mxRectangle width="220" height="30" as="alternateBounds" />
          </mxGeometry>
        </mxCell>
        <mxCell id="9hDXFsLS36bgd5yLtAdr-17" value="" style="shape=partialRectangle;collapsible=0;dropTarget=0;pointerEvents=0;fillColor=none;points=[[0,0.5],[1,0.5]];portConstraint=eastwest;top=0;left=0;right=0;bottom=0;fontFamily=Times New Roman;fontSize=14;fontStyle=0" parent="9hDXFsLS36bgd5yLtAdr-1" vertex="1">
          <mxGeometry y="180" width="250" height="30" as="geometry" />
        </mxCell>
        <mxCell id="9hDXFsLS36bgd5yLtAdr-18" value="" style="shape=partialRectangle;overflow=hidden;connectable=0;fillColor=none;top=0;left=0;bottom=1;right=0;fontFamily=Times New Roman;fontSize=14;fontStyle=0" parent="9hDXFsLS36bgd5yLtAdr-17" vertex="1">
          <mxGeometry width="30" height="30" as="geometry">
            <mxRectangle width="30" height="30" as="alternateBounds" />
          </mxGeometry>
        </mxCell>
        <mxCell id="9hDXFsLS36bgd5yLtAdr-19" value="phone" style="shape=partialRectangle;overflow=hidden;connectable=0;fillColor=none;top=0;left=0;bottom=1;right=0;align=left;spacingLeft=6;fontFamily=Times New Roman;fontSize=14;fontStyle=0" parent="9hDXFsLS36bgd5yLtAdr-17" vertex="1">
          <mxGeometry x="30" width="220" height="30" as="geometry">
            <mxRectangle width="220" height="30" as="alternateBounds" />
          </mxGeometry>
        </mxCell>
        <mxCell id="9hDXFsLS36bgd5yLtAdr-20" value="" style="shape=partialRectangle;collapsible=0;dropTarget=0;pointerEvents=0;fillColor=none;points=[[0,0.5],[1,0.5]];portConstraint=eastwest;top=0;left=0;right=0;bottom=0;fontFamily=Times New Roman;fontSize=14;fontStyle=0" parent="9hDXFsLS36bgd5yLtAdr-1" vertex="1">
          <mxGeometry y="210" width="250" height="30" as="geometry" />
        </mxCell>
        <mxCell id="9hDXFsLS36bgd5yLtAdr-21" value="" style="shape=partialRectangle;overflow=hidden;connectable=0;fillColor=none;top=0;left=0;bottom=1;right=0;fontFamily=Times New Roman;fontSize=14;fontStyle=0" parent="9hDXFsLS36bgd5yLtAdr-20" vertex="1">
          <mxGeometry width="30" height="30" as="geometry">
            <mxRectangle width="30" height="30" as="alternateBounds" />
          </mxGeometry>
        </mxCell>
        <mxCell id="9hDXFsLS36bgd5yLtAdr-22" value="blocked" style="shape=partialRectangle;overflow=hidden;connectable=0;fillColor=none;top=0;left=0;bottom=1;right=0;align=left;spacingLeft=6;fontFamily=Times New Roman;fontSize=14;fontStyle=0" parent="9hDXFsLS36bgd5yLtAdr-20" vertex="1">
          <mxGeometry x="30" width="220" height="30" as="geometry">
            <mxRectangle width="220" height="30" as="alternateBounds" />
          </mxGeometry>
        </mxCell>
        <mxCell id="9hDXFsLS36bgd5yLtAdr-23" value="" style="shape=partialRectangle;collapsible=0;dropTarget=0;pointerEvents=0;fillColor=none;points=[[0,0.5],[1,0.5]];portConstraint=eastwest;top=0;left=0;right=0;bottom=0;fontFamily=Times New Roman;fontSize=14;fontStyle=0" parent="9hDXFsLS36bgd5yLtAdr-1" vertex="1">
          <mxGeometry y="240" width="250" height="30" as="geometry" />
        </mxCell>
        <mxCell id="9hDXFsLS36bgd5yLtAdr-24" value="FK" style="shape=partialRectangle;overflow=hidden;connectable=0;fillColor=none;top=0;left=0;bottom=1;right=0;fontFamily=Times New Roman;fontSize=14;fontStyle=0" parent="9hDXFsLS36bgd5yLtAdr-23" vertex="1">
          <mxGeometry width="30" height="30" as="geometry">
            <mxRectangle width="30" height="30" as="alternateBounds" />
          </mxGeometry>
        </mxCell>
        <mxCell id="9hDXFsLS36bgd5yLtAdr-25" value="role_id" style="shape=partialRectangle;overflow=hidden;connectable=0;fillColor=none;top=0;left=0;bottom=1;right=0;align=left;spacingLeft=6;fontFamily=Times New Roman;fontSize=14;fontStyle=0" parent="9hDXFsLS36bgd5yLtAdr-23" vertex="1">
          <mxGeometry x="30" width="220" height="30" as="geometry">
            <mxRectangle width="220" height="30" as="alternateBounds" />
          </mxGeometry>
        </mxCell>
        <mxCell id="9hDXFsLS36bgd5yLtAdr-26" value="" style="shape=partialRectangle;collapsible=0;dropTarget=0;pointerEvents=0;fillColor=none;points=[[0,0.5],[1,0.5]];portConstraint=eastwest;top=0;left=0;right=0;bottom=0;fontFamily=Times New Roman;fontSize=14;fontStyle=0" parent="9hDXFsLS36bgd5yLtAdr-1" vertex="1">
          <mxGeometry y="270" width="250" height="30" as="geometry" />
        </mxCell>
        <mxCell id="9hDXFsLS36bgd5yLtAdr-27" value="FK" style="shape=partialRectangle;overflow=hidden;connectable=0;fillColor=none;top=0;left=0;bottom=1;right=0;fontFamily=Times New Roman;fontSize=14;fontStyle=0" parent="9hDXFsLS36bgd5yLtAdr-26" vertex="1">
          <mxGeometry width="30" height="30" as="geometry">
            <mxRectangle width="30" height="30" as="alternateBounds" />
          </mxGeometry>
        </mxCell>
        <mxCell id="9hDXFsLS36bgd5yLtAdr-28" value="order_id" style="shape=partialRectangle;overflow=hidden;connectable=0;fillColor=none;top=0;left=0;bottom=1;right=0;align=left;spacingLeft=6;fontFamily=Times New Roman;fontSize=14;fontStyle=0" parent="9hDXFsLS36bgd5yLtAdr-26" vertex="1">
          <mxGeometry x="30" width="220" height="30" as="geometry">
            <mxRectangle width="220" height="30" as="alternateBounds" />
          </mxGeometry>
        </mxCell>
        <mxCell id="9hDXFsLS36bgd5yLtAdr-29" value="roles" style="shape=table;startSize=30;container=1;collapsible=1;childLayout=tableLayout;fixedRows=1;rowLines=0;fontStyle=0;align=center;resizeLast=1;fontFamily=Times New Roman;fontSize=14;bottom=1;" parent="1" vertex="1">
          <mxGeometry x="610" y="1480" width="250" height="90" as="geometry">
            <mxRectangle x="120" y="110" width="110" height="30" as="alternateBounds" />
          </mxGeometry>
        </mxCell>
        <mxCell id="9hDXFsLS36bgd5yLtAdr-30" value="" style="shape=partialRectangle;collapsible=0;dropTarget=0;pointerEvents=0;fillColor=none;points=[[0,0.5],[1,0.5]];portConstraint=eastwest;top=0;left=0;right=0;bottom=1;fontFamily=Times New Roman;fontSize=14;fontStyle=0" parent="9hDXFsLS36bgd5yLtAdr-29" vertex="1">
          <mxGeometry y="30" width="250" height="30" as="geometry" />
        </mxCell>
        <mxCell id="9hDXFsLS36bgd5yLtAdr-31" value="PK" style="shape=partialRectangle;overflow=hidden;connectable=0;fillColor=none;top=0;left=0;bottom=0;right=0;fontStyle=0;fontFamily=Times New Roman;fontSize=14;" parent="9hDXFsLS36bgd5yLtAdr-30" vertex="1">
          <mxGeometry width="30" height="30" as="geometry">
            <mxRectangle width="30" height="30" as="alternateBounds" />
          </mxGeometry>
        </mxCell>
        <mxCell id="9hDXFsLS36bgd5yLtAdr-32" value="id" style="shape=partialRectangle;overflow=hidden;connectable=0;fillColor=none;top=0;left=0;bottom=0;right=0;align=left;spacingLeft=6;fontStyle=0;fontFamily=Times New Roman;fontSize=14;strokeColor=default;" parent="9hDXFsLS36bgd5yLtAdr-30" vertex="1">
          <mxGeometry x="30" width="220" height="30" as="geometry">
            <mxRectangle width="220" height="30" as="alternateBounds" />
          </mxGeometry>
        </mxCell>
        <mxCell id="9hDXFsLS36bgd5yLtAdr-33" value="" style="shape=partialRectangle;collapsible=0;dropTarget=0;pointerEvents=0;fillColor=none;points=[[0,0.5],[1,0.5]];portConstraint=eastwest;top=0;left=0;right=0;bottom=0;fontFamily=Times New Roman;fontSize=14;fontStyle=0" parent="9hDXFsLS36bgd5yLtAdr-29" vertex="1">
          <mxGeometry y="60" width="250" height="30" as="geometry" />
        </mxCell>
        <mxCell id="9hDXFsLS36bgd5yLtAdr-34" value="" style="shape=partialRectangle;overflow=hidden;connectable=0;fillColor=none;top=0;left=0;bottom=1;right=0;fontFamily=Times New Roman;fontSize=14;fontStyle=0" parent="9hDXFsLS36bgd5yLtAdr-33" vertex="1">
          <mxGeometry width="30" height="30" as="geometry">
            <mxRectangle width="30" height="30" as="alternateBounds" />
          </mxGeometry>
        </mxCell>
        <mxCell id="9hDXFsLS36bgd5yLtAdr-35" value="name" style="shape=partialRectangle;overflow=hidden;connectable=0;fillColor=none;top=0;left=0;bottom=1;right=0;align=left;spacingLeft=6;fontFamily=Times New Roman;fontSize=14;fontStyle=0" parent="9hDXFsLS36bgd5yLtAdr-33" vertex="1">
          <mxGeometry x="30" width="220" height="30" as="geometry">
            <mxRectangle width="220" height="30" as="alternateBounds" />
          </mxGeometry>
        </mxCell>
        <mxCell id="9hDXFsLS36bgd5yLtAdr-36" value="addresses" style="shape=table;startSize=30;container=1;collapsible=1;childLayout=tableLayout;fixedRows=1;rowLines=0;fontStyle=0;align=center;resizeLast=1;fontFamily=Times New Roman;fontSize=14;bottom=1;" parent="1" vertex="1">
          <mxGeometry x="-30" y="1650" width="250" height="240" as="geometry">
            <mxRectangle x="120" y="110" width="110" height="30" as="alternateBounds" />
          </mxGeometry>
        </mxCell>
        <mxCell id="9hDXFsLS36bgd5yLtAdr-37" value="" style="shape=partialRectangle;collapsible=0;dropTarget=0;pointerEvents=0;fillColor=none;points=[[0,0.5],[1,0.5]];portConstraint=eastwest;top=0;left=0;right=0;bottom=1;fontFamily=Times New Roman;fontSize=14;fontStyle=0" parent="9hDXFsLS36bgd5yLtAdr-36" vertex="1">
          <mxGeometry y="30" width="250" height="30" as="geometry" />
        </mxCell>
        <mxCell id="9hDXFsLS36bgd5yLtAdr-38" value="PK" style="shape=partialRectangle;overflow=hidden;connectable=0;fillColor=none;top=0;left=0;bottom=0;right=0;fontStyle=0;fontFamily=Times New Roman;fontSize=14;" parent="9hDXFsLS36bgd5yLtAdr-37" vertex="1">
          <mxGeometry width="30" height="30" as="geometry">
            <mxRectangle width="30" height="30" as="alternateBounds" />
          </mxGeometry>
        </mxCell>
        <mxCell id="9hDXFsLS36bgd5yLtAdr-39" value="id" style="shape=partialRectangle;overflow=hidden;connectable=0;fillColor=none;top=0;left=0;bottom=0;right=0;align=left;spacingLeft=6;fontStyle=0;fontFamily=Times New Roman;fontSize=14;strokeColor=default;" parent="9hDXFsLS36bgd5yLtAdr-37" vertex="1">
          <mxGeometry x="30" width="220" height="30" as="geometry">
            <mxRectangle width="220" height="30" as="alternateBounds" />
          </mxGeometry>
        </mxCell>
        <mxCell id="9hDXFsLS36bgd5yLtAdr-40" value="" style="shape=partialRectangle;collapsible=0;dropTarget=0;pointerEvents=0;fillColor=none;points=[[0,0.5],[1,0.5]];portConstraint=eastwest;top=0;left=0;right=0;bottom=0;fontFamily=Times New Roman;fontSize=14;fontStyle=0" parent="9hDXFsLS36bgd5yLtAdr-36" vertex="1">
          <mxGeometry y="60" width="250" height="30" as="geometry" />
        </mxCell>
        <mxCell id="9hDXFsLS36bgd5yLtAdr-41" value="" style="shape=partialRectangle;overflow=hidden;connectable=0;fillColor=none;top=0;left=0;bottom=1;right=0;fontFamily=Times New Roman;fontSize=14;fontStyle=0" parent="9hDXFsLS36bgd5yLtAdr-40" vertex="1">
          <mxGeometry width="30" height="30" as="geometry">
            <mxRectangle width="30" height="30" as="alternateBounds" />
          </mxGeometry>
        </mxCell>
        <mxCell id="9hDXFsLS36bgd5yLtAdr-42" value="country" style="shape=partialRectangle;overflow=hidden;connectable=0;fillColor=none;top=0;left=0;bottom=1;right=0;align=left;spacingLeft=6;fontFamily=Times New Roman;fontSize=14;fontStyle=0" parent="9hDXFsLS36bgd5yLtAdr-40" vertex="1">
          <mxGeometry x="30" width="220" height="30" as="geometry">
            <mxRectangle width="220" height="30" as="alternateBounds" />
          </mxGeometry>
        </mxCell>
        <mxCell id="9hDXFsLS36bgd5yLtAdr-43" style="shape=partialRectangle;collapsible=0;dropTarget=0;pointerEvents=0;fillColor=none;points=[[0,0.5],[1,0.5]];portConstraint=eastwest;top=0;left=0;right=0;bottom=0;fontFamily=Times New Roman;fontSize=14;fontStyle=0" parent="9hDXFsLS36bgd5yLtAdr-36" vertex="1">
          <mxGeometry y="90" width="250" height="30" as="geometry" />
        </mxCell>
        <mxCell id="9hDXFsLS36bgd5yLtAdr-44" value="" style="shape=partialRectangle;overflow=hidden;connectable=0;fillColor=none;top=0;left=0;bottom=1;right=0;fontFamily=Times New Roman;fontSize=14;fontStyle=0" parent="9hDXFsLS36bgd5yLtAdr-43" vertex="1">
          <mxGeometry width="30" height="30" as="geometry">
            <mxRectangle width="30" height="30" as="alternateBounds" />
          </mxGeometry>
        </mxCell>
        <mxCell id="9hDXFsLS36bgd5yLtAdr-45" value="locality" style="shape=partialRectangle;overflow=hidden;connectable=0;fillColor=none;top=0;left=0;bottom=1;right=0;align=left;spacingLeft=6;fontFamily=Times New Roman;fontSize=14;fontStyle=0" parent="9hDXFsLS36bgd5yLtAdr-43" vertex="1">
          <mxGeometry x="30" width="220" height="30" as="geometry">
            <mxRectangle width="220" height="30" as="alternateBounds" />
          </mxGeometry>
        </mxCell>
        <mxCell id="9hDXFsLS36bgd5yLtAdr-46" style="shape=partialRectangle;collapsible=0;dropTarget=0;pointerEvents=0;fillColor=none;points=[[0,0.5],[1,0.5]];portConstraint=eastwest;top=0;left=0;right=0;bottom=0;fontFamily=Times New Roman;fontSize=14;fontStyle=0" parent="9hDXFsLS36bgd5yLtAdr-36" vertex="1">
          <mxGeometry y="120" width="250" height="30" as="geometry" />
        </mxCell>
        <mxCell id="9hDXFsLS36bgd5yLtAdr-47" value="" style="shape=partialRectangle;overflow=hidden;connectable=0;fillColor=none;top=0;left=0;bottom=1;right=0;fontFamily=Times New Roman;fontSize=14;fontStyle=0" parent="9hDXFsLS36bgd5yLtAdr-46" vertex="1">
          <mxGeometry width="30" height="30" as="geometry">
            <mxRectangle width="30" height="30" as="alternateBounds" />
          </mxGeometry>
        </mxCell>
        <mxCell id="9hDXFsLS36bgd5yLtAdr-48" value="street" style="shape=partialRectangle;overflow=hidden;connectable=0;fillColor=none;top=0;left=0;bottom=1;right=0;align=left;spacingLeft=6;fontFamily=Times New Roman;fontSize=14;fontStyle=0" parent="9hDXFsLS36bgd5yLtAdr-46" vertex="1">
          <mxGeometry x="30" width="220" height="30" as="geometry">
            <mxRectangle width="220" height="30" as="alternateBounds" />
          </mxGeometry>
        </mxCell>
        <mxCell id="9hDXFsLS36bgd5yLtAdr-49" style="shape=partialRectangle;collapsible=0;dropTarget=0;pointerEvents=0;fillColor=none;points=[[0,0.5],[1,0.5]];portConstraint=eastwest;top=0;left=0;right=0;bottom=0;fontFamily=Times New Roman;fontSize=14;fontStyle=0" parent="9hDXFsLS36bgd5yLtAdr-36" vertex="1">
          <mxGeometry y="150" width="250" height="30" as="geometry" />
        </mxCell>
        <mxCell id="9hDXFsLS36bgd5yLtAdr-50" value="" style="shape=partialRectangle;overflow=hidden;connectable=0;fillColor=none;top=0;left=0;bottom=1;right=0;fontFamily=Times New Roman;fontSize=14;fontStyle=0" parent="9hDXFsLS36bgd5yLtAdr-49" vertex="1">
          <mxGeometry width="30" height="30" as="geometry">
            <mxRectangle width="30" height="30" as="alternateBounds" />
          </mxGeometry>
        </mxCell>
        <mxCell id="9hDXFsLS36bgd5yLtAdr-51" value="house" style="shape=partialRectangle;overflow=hidden;connectable=0;fillColor=none;top=0;left=0;bottom=1;right=0;align=left;spacingLeft=6;fontFamily=Times New Roman;fontSize=14;fontStyle=0" parent="9hDXFsLS36bgd5yLtAdr-49" vertex="1">
          <mxGeometry x="30" width="220" height="30" as="geometry">
            <mxRectangle width="220" height="30" as="alternateBounds" />
          </mxGeometry>
        </mxCell>
        <mxCell id="9hDXFsLS36bgd5yLtAdr-52" value="" style="shape=partialRectangle;collapsible=0;dropTarget=0;pointerEvents=0;fillColor=none;points=[[0,0.5],[1,0.5]];portConstraint=eastwest;top=0;left=0;right=0;bottom=0;fontFamily=Times New Roman;fontSize=14;fontStyle=0" parent="9hDXFsLS36bgd5yLtAdr-36" vertex="1">
          <mxGeometry y="180" width="250" height="30" as="geometry" />
        </mxCell>
        <mxCell id="9hDXFsLS36bgd5yLtAdr-53" value="" style="shape=partialRectangle;overflow=hidden;connectable=0;fillColor=none;top=0;left=0;bottom=1;right=0;fontFamily=Times New Roman;fontSize=14;fontStyle=0" parent="9hDXFsLS36bgd5yLtAdr-52" vertex="1">
          <mxGeometry width="30" height="30" as="geometry">
            <mxRectangle width="30" height="30" as="alternateBounds" />
          </mxGeometry>
        </mxCell>
        <mxCell id="9hDXFsLS36bgd5yLtAdr-54" value="apartment" style="shape=partialRectangle;overflow=hidden;connectable=0;fillColor=none;top=0;left=0;bottom=1;right=0;align=left;spacingLeft=6;fontFamily=Times New Roman;fontSize=14;fontStyle=0" parent="9hDXFsLS36bgd5yLtAdr-52" vertex="1">
          <mxGeometry x="30" width="220" height="30" as="geometry">
            <mxRectangle width="220" height="30" as="alternateBounds" />
          </mxGeometry>
        </mxCell>
        <mxCell id="9hDXFsLS36bgd5yLtAdr-55" value="" style="shape=partialRectangle;collapsible=0;dropTarget=0;pointerEvents=0;fillColor=none;points=[[0,0.5],[1,0.5]];portConstraint=eastwest;top=0;left=0;right=0;bottom=0;fontFamily=Times New Roman;fontSize=14;fontStyle=0" parent="9hDXFsLS36bgd5yLtAdr-36" vertex="1">
          <mxGeometry y="210" width="250" height="30" as="geometry" />
        </mxCell>
        <mxCell id="9hDXFsLS36bgd5yLtAdr-56" value="FK" style="shape=partialRectangle;overflow=hidden;connectable=0;fillColor=none;top=0;left=0;bottom=1;right=0;fontFamily=Times New Roman;fontSize=14;fontStyle=0" parent="9hDXFsLS36bgd5yLtAdr-55" vertex="1">
          <mxGeometry width="30" height="30" as="geometry">
            <mxRectangle width="30" height="30" as="alternateBounds" />
          </mxGeometry>
        </mxCell>
        <mxCell id="9hDXFsLS36bgd5yLtAdr-57" value="user_id" style="shape=partialRectangle;overflow=hidden;connectable=0;fillColor=none;top=0;left=0;bottom=1;right=0;align=left;spacingLeft=6;fontFamily=Times New Roman;fontSize=14;fontStyle=0" parent="9hDXFsLS36bgd5yLtAdr-55" vertex="1">
          <mxGeometry x="30" width="220" height="30" as="geometry">
            <mxRectangle width="220" height="30" as="alternateBounds" />
          </mxGeometry>
        </mxCell>
        <mxCell id="9hDXFsLS36bgd5yLtAdr-58" value="dishes" style="shape=table;startSize=30;container=1;collapsible=1;childLayout=tableLayout;fixedRows=1;rowLines=0;fontStyle=0;align=center;resizeLast=1;fontFamily=Times New Roman;fontSize=14;bottom=1;" parent="1" vertex="1">
          <mxGeometry x="920" y="1620" width="250" height="270" as="geometry">
            <mxRectangle x="120" y="110" width="110" height="30" as="alternateBounds" />
          </mxGeometry>
        </mxCell>
        <mxCell id="9hDXFsLS36bgd5yLtAdr-59" value="" style="shape=partialRectangle;collapsible=0;dropTarget=0;pointerEvents=0;fillColor=none;points=[[0,0.5],[1,0.5]];portConstraint=eastwest;top=0;left=0;right=0;bottom=1;fontFamily=Times New Roman;fontSize=14;fontStyle=0" parent="9hDXFsLS36bgd5yLtAdr-58" vertex="1">
          <mxGeometry y="30" width="250" height="30" as="geometry" />
        </mxCell>
        <mxCell id="9hDXFsLS36bgd5yLtAdr-60" value="PK" style="shape=partialRectangle;overflow=hidden;connectable=0;fillColor=none;top=0;left=0;bottom=0;right=0;fontStyle=0;fontFamily=Times New Roman;fontSize=14;" parent="9hDXFsLS36bgd5yLtAdr-59" vertex="1">
          <mxGeometry width="30" height="30" as="geometry">
            <mxRectangle width="30" height="30" as="alternateBounds" />
          </mxGeometry>
        </mxCell>
        <mxCell id="9hDXFsLS36bgd5yLtAdr-61" value="id" style="shape=partialRectangle;overflow=hidden;connectable=0;fillColor=none;top=0;left=0;bottom=0;right=0;align=left;spacingLeft=6;fontStyle=0;fontFamily=Times New Roman;fontSize=14;strokeColor=default;" parent="9hDXFsLS36bgd5yLtAdr-59" vertex="1">
          <mxGeometry x="30" width="220" height="30" as="geometry">
            <mxRectangle width="220" height="30" as="alternateBounds" />
          </mxGeometry>
        </mxCell>
        <mxCell id="9hDXFsLS36bgd5yLtAdr-62" value="" style="shape=partialRectangle;collapsible=0;dropTarget=0;pointerEvents=0;fillColor=none;points=[[0,0.5],[1,0.5]];portConstraint=eastwest;top=0;left=0;right=0;bottom=0;fontFamily=Times New Roman;fontSize=14;fontStyle=0" parent="9hDXFsLS36bgd5yLtAdr-58" vertex="1">
          <mxGeometry y="60" width="250" height="30" as="geometry" />
        </mxCell>
        <mxCell id="9hDXFsLS36bgd5yLtAdr-63" value="" style="shape=partialRectangle;overflow=hidden;connectable=0;fillColor=none;top=0;left=0;bottom=1;right=0;fontFamily=Times New Roman;fontSize=14;fontStyle=0" parent="9hDXFsLS36bgd5yLtAdr-62" vertex="1">
          <mxGeometry width="30" height="30" as="geometry">
            <mxRectangle width="30" height="30" as="alternateBounds" />
          </mxGeometry>
        </mxCell>
        <mxCell id="9hDXFsLS36bgd5yLtAdr-64" value="name" style="shape=partialRectangle;overflow=hidden;connectable=0;fillColor=none;top=0;left=0;bottom=1;right=0;align=left;spacingLeft=6;fontFamily=Times New Roman;fontSize=14;fontStyle=0" parent="9hDXFsLS36bgd5yLtAdr-62" vertex="1">
          <mxGeometry x="30" width="220" height="30" as="geometry">
            <mxRectangle width="220" height="30" as="alternateBounds" />
          </mxGeometry>
        </mxCell>
        <mxCell id="9hDXFsLS36bgd5yLtAdr-65" style="shape=partialRectangle;collapsible=0;dropTarget=0;pointerEvents=0;fillColor=none;points=[[0,0.5],[1,0.5]];portConstraint=eastwest;top=0;left=0;right=0;bottom=0;fontFamily=Times New Roman;fontSize=14;fontStyle=0" parent="9hDXFsLS36bgd5yLtAdr-58" vertex="1">
          <mxGeometry y="90" width="250" height="30" as="geometry" />
        </mxCell>
        <mxCell id="9hDXFsLS36bgd5yLtAdr-66" value="" style="shape=partialRectangle;overflow=hidden;connectable=0;fillColor=none;top=0;left=0;bottom=1;right=0;fontFamily=Times New Roman;fontSize=14;fontStyle=0" parent="9hDXFsLS36bgd5yLtAdr-65" vertex="1">
          <mxGeometry width="30" height="30" as="geometry">
            <mxRectangle width="30" height="30" as="alternateBounds" />
          </mxGeometry>
        </mxCell>
        <mxCell id="9hDXFsLS36bgd5yLtAdr-67" value="description" style="shape=partialRectangle;overflow=hidden;connectable=0;fillColor=none;top=0;left=0;bottom=1;right=0;align=left;spacingLeft=6;fontFamily=Times New Roman;fontSize=14;fontStyle=0" parent="9hDXFsLS36bgd5yLtAdr-65" vertex="1">
          <mxGeometry x="30" width="220" height="30" as="geometry">
            <mxRectangle width="220" height="30" as="alternateBounds" />
          </mxGeometry>
        </mxCell>
        <mxCell id="9hDXFsLS36bgd5yLtAdr-68" style="shape=partialRectangle;collapsible=0;dropTarget=0;pointerEvents=0;fillColor=none;points=[[0,0.5],[1,0.5]];portConstraint=eastwest;top=0;left=0;right=0;bottom=0;fontFamily=Times New Roman;fontSize=14;fontStyle=0" parent="9hDXFsLS36bgd5yLtAdr-58" vertex="1">
          <mxGeometry y="120" width="250" height="30" as="geometry" />
        </mxCell>
        <mxCell id="9hDXFsLS36bgd5yLtAdr-69" value="" style="shape=partialRectangle;overflow=hidden;connectable=0;fillColor=none;top=0;left=0;bottom=1;right=0;fontFamily=Times New Roman;fontSize=14;fontStyle=0" parent="9hDXFsLS36bgd5yLtAdr-68" vertex="1">
          <mxGeometry width="30" height="30" as="geometry">
            <mxRectangle width="30" height="30" as="alternateBounds" />
          </mxGeometry>
        </mxCell>
        <mxCell id="9hDXFsLS36bgd5yLtAdr-70" value="image_url" style="shape=partialRectangle;overflow=hidden;connectable=0;fillColor=none;top=0;left=0;bottom=1;right=0;align=left;spacingLeft=6;fontFamily=Times New Roman;fontSize=14;fontStyle=0" parent="9hDXFsLS36bgd5yLtAdr-68" vertex="1">
          <mxGeometry x="30" width="220" height="30" as="geometry">
            <mxRectangle width="220" height="30" as="alternateBounds" />
          </mxGeometry>
        </mxCell>
        <mxCell id="9hDXFsLS36bgd5yLtAdr-71" style="shape=partialRectangle;collapsible=0;dropTarget=0;pointerEvents=0;fillColor=none;points=[[0,0.5],[1,0.5]];portConstraint=eastwest;top=0;left=0;right=0;bottom=0;fontFamily=Times New Roman;fontSize=14;fontStyle=0" parent="9hDXFsLS36bgd5yLtAdr-58" vertex="1">
          <mxGeometry y="150" width="250" height="30" as="geometry" />
        </mxCell>
        <mxCell id="9hDXFsLS36bgd5yLtAdr-72" value="" style="shape=partialRectangle;overflow=hidden;connectable=0;fillColor=none;top=0;left=0;bottom=1;right=0;fontFamily=Times New Roman;fontSize=14;fontStyle=0" parent="9hDXFsLS36bgd5yLtAdr-71" vertex="1">
          <mxGeometry width="30" height="30" as="geometry">
            <mxRectangle width="30" height="30" as="alternateBounds" />
          </mxGeometry>
        </mxCell>
        <mxCell id="9hDXFsLS36bgd5yLtAdr-73" value="weight" style="shape=partialRectangle;overflow=hidden;connectable=0;fillColor=none;top=0;left=0;bottom=1;right=0;align=left;spacingLeft=6;fontFamily=Times New Roman;fontSize=14;fontStyle=0" parent="9hDXFsLS36bgd5yLtAdr-71" vertex="1">
          <mxGeometry x="30" width="220" height="30" as="geometry">
            <mxRectangle width="220" height="30" as="alternateBounds" />
          </mxGeometry>
        </mxCell>
        <mxCell id="9hDXFsLS36bgd5yLtAdr-74" value="" style="shape=partialRectangle;collapsible=0;dropTarget=0;pointerEvents=0;fillColor=none;points=[[0,0.5],[1,0.5]];portConstraint=eastwest;top=0;left=0;right=0;bottom=0;fontFamily=Times New Roman;fontSize=14;fontStyle=0" parent="9hDXFsLS36bgd5yLtAdr-58" vertex="1">
          <mxGeometry y="180" width="250" height="30" as="geometry" />
        </mxCell>
        <mxCell id="9hDXFsLS36bgd5yLtAdr-75" value="" style="shape=partialRectangle;overflow=hidden;connectable=0;fillColor=none;top=0;left=0;bottom=1;right=0;fontFamily=Times New Roman;fontSize=14;fontStyle=0" parent="9hDXFsLS36bgd5yLtAdr-74" vertex="1">
          <mxGeometry width="30" height="30" as="geometry">
            <mxRectangle width="30" height="30" as="alternateBounds" />
          </mxGeometry>
        </mxCell>
        <mxCell id="9hDXFsLS36bgd5yLtAdr-76" value="price" style="shape=partialRectangle;overflow=hidden;connectable=0;fillColor=none;top=0;left=0;bottom=1;right=0;align=left;spacingLeft=6;fontFamily=Times New Roman;fontSize=14;fontStyle=0" parent="9hDXFsLS36bgd5yLtAdr-74" vertex="1">
          <mxGeometry x="30" width="220" height="30" as="geometry">
            <mxRectangle width="220" height="30" as="alternateBounds" />
          </mxGeometry>
        </mxCell>
        <mxCell id="9hDXFsLS36bgd5yLtAdr-77" value="" style="shape=partialRectangle;collapsible=0;dropTarget=0;pointerEvents=0;fillColor=none;points=[[0,0.5],[1,0.5]];portConstraint=eastwest;top=0;left=0;right=0;bottom=0;fontFamily=Times New Roman;fontSize=14;fontStyle=0" parent="9hDXFsLS36bgd5yLtAdr-58" vertex="1">
          <mxGeometry y="210" width="250" height="30" as="geometry" />
        </mxCell>
        <mxCell id="9hDXFsLS36bgd5yLtAdr-78" value="" style="shape=partialRectangle;overflow=hidden;connectable=0;fillColor=none;top=0;left=0;bottom=1;right=0;fontFamily=Times New Roman;fontSize=14;fontStyle=0" parent="9hDXFsLS36bgd5yLtAdr-77" vertex="1">
          <mxGeometry width="30" height="30" as="geometry">
            <mxRectangle width="30" height="30" as="alternateBounds" />
          </mxGeometry>
        </mxCell>
        <mxCell id="9hDXFsLS36bgd5yLtAdr-79" value="discount" style="shape=partialRectangle;overflow=hidden;connectable=0;fillColor=none;top=0;left=0;bottom=1;right=0;align=left;spacingLeft=6;fontFamily=Times New Roman;fontSize=14;fontStyle=0" parent="9hDXFsLS36bgd5yLtAdr-77" vertex="1">
          <mxGeometry x="30" width="220" height="30" as="geometry">
            <mxRectangle width="220" height="30" as="alternateBounds" />
          </mxGeometry>
        </mxCell>
        <mxCell id="9hDXFsLS36bgd5yLtAdr-80" value="" style="shape=partialRectangle;collapsible=0;dropTarget=0;pointerEvents=0;fillColor=none;points=[[0,0.5],[1,0.5]];portConstraint=eastwest;top=0;left=0;right=0;bottom=0;fontFamily=Times New Roman;fontSize=14;fontStyle=0" parent="9hDXFsLS36bgd5yLtAdr-58" vertex="1">
          <mxGeometry y="240" width="250" height="30" as="geometry" />
        </mxCell>
        <mxCell id="9hDXFsLS36bgd5yLtAdr-81" value="FK" style="shape=partialRectangle;overflow=hidden;connectable=0;fillColor=none;top=0;left=0;bottom=1;right=0;fontFamily=Times New Roman;fontSize=14;fontStyle=0" parent="9hDXFsLS36bgd5yLtAdr-80" vertex="1">
          <mxGeometry width="30" height="30" as="geometry">
            <mxRectangle width="30" height="30" as="alternateBounds" />
          </mxGeometry>
        </mxCell>
        <mxCell id="9hDXFsLS36bgd5yLtAdr-82" value="category_id" style="shape=partialRectangle;overflow=hidden;connectable=0;fillColor=none;top=0;left=0;bottom=1;right=0;align=left;spacingLeft=6;fontFamily=Times New Roman;fontSize=14;fontStyle=0" parent="9hDXFsLS36bgd5yLtAdr-80" vertex="1">
          <mxGeometry x="30" width="220" height="30" as="geometry">
            <mxRectangle width="220" height="30" as="alternateBounds" />
          </mxGeometry>
        </mxCell>
        <mxCell id="9hDXFsLS36bgd5yLtAdr-83" value="orders" style="shape=table;startSize=30;container=1;collapsible=1;childLayout=tableLayout;fixedRows=1;rowLines=0;fontStyle=0;align=center;resizeLast=1;fontFamily=Times New Roman;fontSize=14;bottom=1;" parent="1" vertex="1">
          <mxGeometry x="300" y="1710" width="250" height="300" as="geometry">
            <mxRectangle x="120" y="110" width="110" height="30" as="alternateBounds" />
          </mxGeometry>
        </mxCell>
        <mxCell id="9hDXFsLS36bgd5yLtAdr-84" value="" style="shape=partialRectangle;collapsible=0;dropTarget=0;pointerEvents=0;fillColor=none;points=[[0,0.5],[1,0.5]];portConstraint=eastwest;top=0;left=0;right=0;bottom=1;fontFamily=Times New Roman;fontSize=14;fontStyle=0" parent="9hDXFsLS36bgd5yLtAdr-83" vertex="1">
          <mxGeometry y="30" width="250" height="30" as="geometry" />
        </mxCell>
        <mxCell id="9hDXFsLS36bgd5yLtAdr-85" value="PK" style="shape=partialRectangle;overflow=hidden;connectable=0;fillColor=none;top=0;left=0;bottom=0;right=0;fontStyle=0;fontFamily=Times New Roman;fontSize=14;" parent="9hDXFsLS36bgd5yLtAdr-84" vertex="1">
          <mxGeometry width="30" height="30" as="geometry">
            <mxRectangle width="30" height="30" as="alternateBounds" />
          </mxGeometry>
        </mxCell>
        <mxCell id="9hDXFsLS36bgd5yLtAdr-86" value="id" style="shape=partialRectangle;overflow=hidden;connectable=0;fillColor=none;top=0;left=0;bottom=0;right=0;align=left;spacingLeft=6;fontStyle=0;fontFamily=Times New Roman;fontSize=14;strokeColor=default;" parent="9hDXFsLS36bgd5yLtAdr-84" vertex="1">
          <mxGeometry x="30" width="220" height="30" as="geometry">
            <mxRectangle width="220" height="30" as="alternateBounds" />
          </mxGeometry>
        </mxCell>
        <mxCell id="9hDXFsLS36bgd5yLtAdr-87" value="" style="shape=partialRectangle;collapsible=0;dropTarget=0;pointerEvents=0;fillColor=none;points=[[0,0.5],[1,0.5]];portConstraint=eastwest;top=0;left=0;right=0;bottom=0;fontFamily=Times New Roman;fontSize=14;fontStyle=0" parent="9hDXFsLS36bgd5yLtAdr-83" vertex="1">
          <mxGeometry y="60" width="250" height="30" as="geometry" />
        </mxCell>
        <mxCell id="9hDXFsLS36bgd5yLtAdr-88" value="" style="shape=partialRectangle;overflow=hidden;connectable=0;fillColor=none;top=0;left=0;bottom=1;right=0;fontFamily=Times New Roman;fontSize=14;fontStyle=0" parent="9hDXFsLS36bgd5yLtAdr-87" vertex="1">
          <mxGeometry width="30" height="30" as="geometry">
            <mxRectangle width="30" height="30" as="alternateBounds" />
          </mxGeometry>
        </mxCell>
        <mxCell id="9hDXFsLS36bgd5yLtAdr-89" value="price" style="shape=partialRectangle;overflow=hidden;connectable=0;fillColor=none;top=0;left=0;bottom=1;right=0;align=left;spacingLeft=6;fontFamily=Times New Roman;fontSize=14;fontStyle=0" parent="9hDXFsLS36bgd5yLtAdr-87" vertex="1">
          <mxGeometry x="30" width="220" height="30" as="geometry">
            <mxRectangle width="220" height="30" as="alternateBounds" />
          </mxGeometry>
        </mxCell>
        <mxCell id="9hDXFsLS36bgd5yLtAdr-90" style="shape=partialRectangle;collapsible=0;dropTarget=0;pointerEvents=0;fillColor=none;points=[[0,0.5],[1,0.5]];portConstraint=eastwest;top=0;left=0;right=0;bottom=0;fontFamily=Times New Roman;fontSize=14;fontStyle=0" parent="9hDXFsLS36bgd5yLtAdr-83" vertex="1">
          <mxGeometry y="90" width="250" height="30" as="geometry" />
        </mxCell>
        <mxCell id="9hDXFsLS36bgd5yLtAdr-91" value="" style="shape=partialRectangle;overflow=hidden;connectable=0;fillColor=none;top=0;left=0;bottom=1;right=0;fontFamily=Times New Roman;fontSize=14;fontStyle=0" parent="9hDXFsLS36bgd5yLtAdr-90" vertex="1">
          <mxGeometry width="30" height="30" as="geometry">
            <mxRectangle width="30" height="30" as="alternateBounds" />
          </mxGeometry>
        </mxCell>
        <mxCell id="9hDXFsLS36bgd5yLtAdr-92" value="specified_date" style="shape=partialRectangle;overflow=hidden;connectable=0;fillColor=none;top=0;left=0;bottom=1;right=0;align=left;spacingLeft=6;fontFamily=Times New Roman;fontSize=14;fontStyle=0" parent="9hDXFsLS36bgd5yLtAdr-90" vertex="1">
          <mxGeometry x="30" width="220" height="30" as="geometry">
            <mxRectangle width="220" height="30" as="alternateBounds" />
          </mxGeometry>
        </mxCell>
        <mxCell id="9hDXFsLS36bgd5yLtAdr-93" style="shape=partialRectangle;collapsible=0;dropTarget=0;pointerEvents=0;fillColor=none;points=[[0,0.5],[1,0.5]];portConstraint=eastwest;top=0;left=0;right=0;bottom=0;fontFamily=Times New Roman;fontSize=14;fontStyle=0" parent="9hDXFsLS36bgd5yLtAdr-83" vertex="1">
          <mxGeometry y="120" width="250" height="30" as="geometry" />
        </mxCell>
        <mxCell id="9hDXFsLS36bgd5yLtAdr-94" value="" style="shape=partialRectangle;overflow=hidden;connectable=0;fillColor=none;top=0;left=0;bottom=1;right=0;fontFamily=Times New Roman;fontSize=14;fontStyle=0" parent="9hDXFsLS36bgd5yLtAdr-93" vertex="1">
          <mxGeometry width="30" height="30" as="geometry">
            <mxRectangle width="30" height="30" as="alternateBounds" />
          </mxGeometry>
        </mxCell>
        <mxCell id="9hDXFsLS36bgd5yLtAdr-95" value="order_date" style="shape=partialRectangle;overflow=hidden;connectable=0;fillColor=none;top=0;left=0;bottom=1;right=0;align=left;spacingLeft=6;fontFamily=Times New Roman;fontSize=14;fontStyle=0" parent="9hDXFsLS36bgd5yLtAdr-93" vertex="1">
          <mxGeometry x="30" width="220" height="30" as="geometry">
            <mxRectangle width="220" height="30" as="alternateBounds" />
          </mxGeometry>
        </mxCell>
        <mxCell id="9hDXFsLS36bgd5yLtAdr-96" style="shape=partialRectangle;collapsible=0;dropTarget=0;pointerEvents=0;fillColor=none;points=[[0,0.5],[1,0.5]];portConstraint=eastwest;top=0;left=0;right=0;bottom=0;fontFamily=Times New Roman;fontSize=14;fontStyle=0" parent="9hDXFsLS36bgd5yLtAdr-83" vertex="1">
          <mxGeometry y="150" width="250" height="30" as="geometry" />
        </mxCell>
        <mxCell id="9hDXFsLS36bgd5yLtAdr-97" value="" style="shape=partialRectangle;overflow=hidden;connectable=0;fillColor=none;top=0;left=0;bottom=1;right=0;fontFamily=Times New Roman;fontSize=14;fontStyle=0" parent="9hDXFsLS36bgd5yLtAdr-96" vertex="1">
          <mxGeometry width="30" height="30" as="geometry">
            <mxRectangle width="30" height="30" as="alternateBounds" />
          </mxGeometry>
        </mxCell>
        <mxCell id="9hDXFsLS36bgd5yLtAdr-98" value="delivery_date" style="shape=partialRectangle;overflow=hidden;connectable=0;fillColor=none;top=0;left=0;bottom=1;right=0;align=left;spacingLeft=6;fontFamily=Times New Roman;fontSize=14;fontStyle=0" parent="9hDXFsLS36bgd5yLtAdr-96" vertex="1">
          <mxGeometry x="30" width="220" height="30" as="geometry">
            <mxRectangle width="220" height="30" as="alternateBounds" />
          </mxGeometry>
        </mxCell>
        <mxCell id="9hDXFsLS36bgd5yLtAdr-99" value="" style="shape=partialRectangle;collapsible=0;dropTarget=0;pointerEvents=0;fillColor=none;points=[[0,0.5],[1,0.5]];portConstraint=eastwest;top=0;left=0;right=0;bottom=0;fontFamily=Times New Roman;fontSize=14;fontStyle=0" parent="9hDXFsLS36bgd5yLtAdr-83" vertex="1">
          <mxGeometry y="180" width="250" height="30" as="geometry" />
        </mxCell>
        <mxCell id="9hDXFsLS36bgd5yLtAdr-100" value="FK" style="shape=partialRectangle;overflow=hidden;connectable=0;fillColor=none;top=0;left=0;bottom=1;right=0;fontFamily=Times New Roman;fontSize=14;fontStyle=0" parent="9hDXFsLS36bgd5yLtAdr-99" vertex="1">
          <mxGeometry width="30" height="30" as="geometry">
            <mxRectangle width="30" height="30" as="alternateBounds" />
          </mxGeometry>
        </mxCell>
        <mxCell id="9hDXFsLS36bgd5yLtAdr-101" value="address_id" style="shape=partialRectangle;overflow=hidden;connectable=0;fillColor=none;top=0;left=0;bottom=1;right=0;align=left;spacingLeft=6;fontFamily=Times New Roman;fontSize=14;fontStyle=0" parent="9hDXFsLS36bgd5yLtAdr-99" vertex="1">
          <mxGeometry x="30" width="220" height="30" as="geometry">
            <mxRectangle width="220" height="30" as="alternateBounds" />
          </mxGeometry>
        </mxCell>
        <mxCell id="9hDXFsLS36bgd5yLtAdr-102" value="" style="shape=partialRectangle;collapsible=0;dropTarget=0;pointerEvents=0;fillColor=none;points=[[0,0.5],[1,0.5]];portConstraint=eastwest;top=0;left=0;right=0;bottom=0;fontFamily=Times New Roman;fontSize=14;fontStyle=0" parent="9hDXFsLS36bgd5yLtAdr-83" vertex="1">
          <mxGeometry y="210" width="250" height="30" as="geometry" />
        </mxCell>
        <mxCell id="9hDXFsLS36bgd5yLtAdr-103" value="FK" style="shape=partialRectangle;overflow=hidden;connectable=0;fillColor=none;top=0;left=0;bottom=1;right=0;fontFamily=Times New Roman;fontSize=14;fontStyle=0" parent="9hDXFsLS36bgd5yLtAdr-102" vertex="1">
          <mxGeometry width="30" height="30" as="geometry">
            <mxRectangle width="30" height="30" as="alternateBounds" />
          </mxGeometry>
        </mxCell>
        <mxCell id="9hDXFsLS36bgd5yLtAdr-104" value="status_id" style="shape=partialRectangle;overflow=hidden;connectable=0;fillColor=none;top=0;left=0;bottom=1;right=0;align=left;spacingLeft=6;fontFamily=Times New Roman;fontSize=14;fontStyle=0" parent="9hDXFsLS36bgd5yLtAdr-102" vertex="1">
          <mxGeometry x="30" width="220" height="30" as="geometry">
            <mxRectangle width="220" height="30" as="alternateBounds" />
          </mxGeometry>
        </mxCell>
        <mxCell id="9hDXFsLS36bgd5yLtAdr-105" value="" style="shape=partialRectangle;collapsible=0;dropTarget=0;pointerEvents=0;fillColor=none;points=[[0,0.5],[1,0.5]];portConstraint=eastwest;top=0;left=0;right=0;bottom=0;fontFamily=Times New Roman;fontSize=14;fontStyle=0" parent="9hDXFsLS36bgd5yLtAdr-83" vertex="1">
          <mxGeometry y="240" width="250" height="30" as="geometry" />
        </mxCell>
        <mxCell id="9hDXFsLS36bgd5yLtAdr-106" value="FK" style="shape=partialRectangle;overflow=hidden;connectable=0;fillColor=none;top=0;left=0;bottom=1;right=0;fontFamily=Times New Roman;fontSize=14;fontStyle=0" parent="9hDXFsLS36bgd5yLtAdr-105" vertex="1">
          <mxGeometry width="30" height="30" as="geometry">
            <mxRectangle width="30" height="30" as="alternateBounds" />
          </mxGeometry>
        </mxCell>
        <mxCell id="9hDXFsLS36bgd5yLtAdr-107" value="customer_id" style="shape=partialRectangle;overflow=hidden;connectable=0;fillColor=none;top=0;left=0;bottom=1;right=0;align=left;spacingLeft=6;fontFamily=Times New Roman;fontSize=14;fontStyle=0" parent="9hDXFsLS36bgd5yLtAdr-105" vertex="1">
          <mxGeometry x="30" width="220" height="30" as="geometry">
            <mxRectangle width="220" height="30" as="alternateBounds" />
          </mxGeometry>
        </mxCell>
        <mxCell id="9hDXFsLS36bgd5yLtAdr-108" value="" style="shape=partialRectangle;collapsible=0;dropTarget=0;pointerEvents=0;fillColor=none;points=[[0,0.5],[1,0.5]];portConstraint=eastwest;top=0;left=0;right=0;bottom=0;fontFamily=Times New Roman;fontSize=14;fontStyle=0" parent="9hDXFsLS36bgd5yLtAdr-83" vertex="1">
          <mxGeometry y="270" width="250" height="30" as="geometry" />
        </mxCell>
        <mxCell id="9hDXFsLS36bgd5yLtAdr-109" value="FK" style="shape=partialRectangle;overflow=hidden;connectable=0;fillColor=none;top=0;left=0;bottom=1;right=0;fontFamily=Times New Roman;fontSize=14;fontStyle=0" parent="9hDXFsLS36bgd5yLtAdr-108" vertex="1">
          <mxGeometry width="30" height="30" as="geometry">
            <mxRectangle width="30" height="30" as="alternateBounds" />
          </mxGeometry>
        </mxCell>
        <mxCell id="9hDXFsLS36bgd5yLtAdr-110" value="manager_id" style="shape=partialRectangle;overflow=hidden;connectable=0;fillColor=none;top=0;left=0;bottom=1;right=0;align=left;spacingLeft=6;fontFamily=Times New Roman;fontSize=14;fontStyle=0" parent="9hDXFsLS36bgd5yLtAdr-108" vertex="1">
          <mxGeometry x="30" width="220" height="30" as="geometry">
            <mxRectangle width="220" height="30" as="alternateBounds" />
          </mxGeometry>
        </mxCell>
        <mxCell id="9hDXFsLS36bgd5yLtAdr-111" value="order_items" style="shape=table;startSize=30;container=1;collapsible=1;childLayout=tableLayout;fixedRows=1;rowLines=0;fontStyle=0;align=center;resizeLast=1;fontFamily=Times New Roman;fontSize=14;bottom=1;" parent="1" vertex="1">
          <mxGeometry x="610" y="1620" width="250" height="150" as="geometry">
            <mxRectangle x="120" y="110" width="110" height="30" as="alternateBounds" />
          </mxGeometry>
        </mxCell>
        <mxCell id="9hDXFsLS36bgd5yLtAdr-112" value="" style="shape=partialRectangle;collapsible=0;dropTarget=0;pointerEvents=0;fillColor=none;points=[[0,0.5],[1,0.5]];portConstraint=eastwest;top=0;left=0;right=0;bottom=1;fontFamily=Times New Roman;fontSize=14;fontStyle=0" parent="9hDXFsLS36bgd5yLtAdr-111" vertex="1">
          <mxGeometry y="30" width="250" height="30" as="geometry" />
        </mxCell>
        <mxCell id="9hDXFsLS36bgd5yLtAdr-113" value="PK" style="shape=partialRectangle;overflow=hidden;connectable=0;fillColor=none;top=0;left=0;bottom=0;right=0;fontStyle=0;fontFamily=Times New Roman;fontSize=14;" parent="9hDXFsLS36bgd5yLtAdr-112" vertex="1">
          <mxGeometry width="30" height="30" as="geometry">
            <mxRectangle width="30" height="30" as="alternateBounds" />
          </mxGeometry>
        </mxCell>
        <mxCell id="9hDXFsLS36bgd5yLtAdr-114" value="id" style="shape=partialRectangle;overflow=hidden;connectable=0;fillColor=none;top=0;left=0;bottom=0;right=0;align=left;spacingLeft=6;fontStyle=0;fontFamily=Times New Roman;fontSize=14;strokeColor=default;" parent="9hDXFsLS36bgd5yLtAdr-112" vertex="1">
          <mxGeometry x="30" width="220" height="30" as="geometry">
            <mxRectangle width="220" height="30" as="alternateBounds" />
          </mxGeometry>
        </mxCell>
        <mxCell id="9hDXFsLS36bgd5yLtAdr-115" value="" style="shape=partialRectangle;collapsible=0;dropTarget=0;pointerEvents=0;fillColor=none;points=[[0,0.5],[1,0.5]];portConstraint=eastwest;top=0;left=0;right=0;bottom=0;fontFamily=Times New Roman;fontSize=14;fontStyle=0" parent="9hDXFsLS36bgd5yLtAdr-111" vertex="1">
          <mxGeometry y="60" width="250" height="30" as="geometry" />
        </mxCell>
        <mxCell id="9hDXFsLS36bgd5yLtAdr-116" value="" style="shape=partialRectangle;overflow=hidden;connectable=0;fillColor=none;top=0;left=0;bottom=1;right=0;fontFamily=Times New Roman;fontSize=14;fontStyle=0" parent="9hDXFsLS36bgd5yLtAdr-115" vertex="1">
          <mxGeometry width="30" height="30" as="geometry">
            <mxRectangle width="30" height="30" as="alternateBounds" />
          </mxGeometry>
        </mxCell>
        <mxCell id="9hDXFsLS36bgd5yLtAdr-117" value="quantity" style="shape=partialRectangle;overflow=hidden;connectable=0;fillColor=none;top=0;left=0;bottom=1;right=0;align=left;spacingLeft=6;fontFamily=Times New Roman;fontSize=14;fontStyle=0" parent="9hDXFsLS36bgd5yLtAdr-115" vertex="1">
          <mxGeometry x="30" width="220" height="30" as="geometry">
            <mxRectangle width="220" height="30" as="alternateBounds" />
          </mxGeometry>
        </mxCell>
        <mxCell id="9hDXFsLS36bgd5yLtAdr-118" style="shape=partialRectangle;collapsible=0;dropTarget=0;pointerEvents=0;fillColor=none;points=[[0,0.5],[1,0.5]];portConstraint=eastwest;top=0;left=0;right=0;bottom=0;fontFamily=Times New Roman;fontSize=14;fontStyle=0" parent="9hDXFsLS36bgd5yLtAdr-111" vertex="1">
          <mxGeometry y="90" width="250" height="30" as="geometry" />
        </mxCell>
        <mxCell id="9hDXFsLS36bgd5yLtAdr-119" value="FK" style="shape=partialRectangle;overflow=hidden;connectable=0;fillColor=none;top=0;left=0;bottom=1;right=0;fontFamily=Times New Roman;fontSize=14;fontStyle=0" parent="9hDXFsLS36bgd5yLtAdr-118" vertex="1">
          <mxGeometry width="30" height="30" as="geometry">
            <mxRectangle width="30" height="30" as="alternateBounds" />
          </mxGeometry>
        </mxCell>
        <mxCell id="9hDXFsLS36bgd5yLtAdr-120" value="dish_id" style="shape=partialRectangle;overflow=hidden;connectable=0;fillColor=none;top=0;left=0;bottom=1;right=0;align=left;spacingLeft=6;fontFamily=Times New Roman;fontSize=14;fontStyle=0" parent="9hDXFsLS36bgd5yLtAdr-118" vertex="1">
          <mxGeometry x="30" width="220" height="30" as="geometry">
            <mxRectangle width="220" height="30" as="alternateBounds" />
          </mxGeometry>
        </mxCell>
        <mxCell id="9hDXFsLS36bgd5yLtAdr-121" value="" style="shape=partialRectangle;collapsible=0;dropTarget=0;pointerEvents=0;fillColor=none;points=[[0,0.5],[1,0.5]];portConstraint=eastwest;top=0;left=0;right=0;bottom=0;fontFamily=Times New Roman;fontSize=14;fontStyle=0" parent="9hDXFsLS36bgd5yLtAdr-111" vertex="1">
          <mxGeometry y="120" width="250" height="30" as="geometry" />
        </mxCell>
        <mxCell id="9hDXFsLS36bgd5yLtAdr-122" value="FK" style="shape=partialRectangle;overflow=hidden;connectable=0;fillColor=none;top=0;left=0;bottom=1;right=0;fontFamily=Times New Roman;fontSize=14;fontStyle=0" parent="9hDXFsLS36bgd5yLtAdr-121" vertex="1">
          <mxGeometry width="30" height="30" as="geometry">
            <mxRectangle width="30" height="30" as="alternateBounds" />
          </mxGeometry>
        </mxCell>
        <mxCell id="9hDXFsLS36bgd5yLtAdr-123" value="order_id" style="shape=partialRectangle;overflow=hidden;connectable=0;fillColor=none;top=0;left=0;bottom=1;right=0;align=left;spacingLeft=6;fontFamily=Times New Roman;fontSize=14;fontStyle=0" parent="9hDXFsLS36bgd5yLtAdr-121" vertex="1">
          <mxGeometry x="30" width="220" height="30" as="geometry">
            <mxRectangle width="220" height="30" as="alternateBounds" />
          </mxGeometry>
        </mxCell>
        <mxCell id="9hDXFsLS36bgd5yLtAdr-124" value="reviews" style="shape=table;startSize=30;container=1;collapsible=1;childLayout=tableLayout;fixedRows=1;rowLines=0;fontStyle=0;align=center;resizeLast=1;fontFamily=Times New Roman;fontSize=14;bottom=1;" parent="1" vertex="1">
          <mxGeometry x="-30" y="1380" width="250" height="180" as="geometry">
            <mxRectangle x="120" y="110" width="110" height="30" as="alternateBounds" />
          </mxGeometry>
        </mxCell>
        <mxCell id="9hDXFsLS36bgd5yLtAdr-125" value="" style="shape=partialRectangle;collapsible=0;dropTarget=0;pointerEvents=0;fillColor=none;points=[[0,0.5],[1,0.5]];portConstraint=eastwest;top=0;left=0;right=0;bottom=1;fontFamily=Times New Roman;fontSize=14;fontStyle=0" parent="9hDXFsLS36bgd5yLtAdr-124" vertex="1">
          <mxGeometry y="30" width="250" height="30" as="geometry" />
        </mxCell>
        <mxCell id="9hDXFsLS36bgd5yLtAdr-126" value="PK" style="shape=partialRectangle;overflow=hidden;connectable=0;fillColor=none;top=0;left=0;bottom=0;right=0;fontStyle=0;fontFamily=Times New Roman;fontSize=14;" parent="9hDXFsLS36bgd5yLtAdr-125" vertex="1">
          <mxGeometry width="30" height="30" as="geometry">
            <mxRectangle width="30" height="30" as="alternateBounds" />
          </mxGeometry>
        </mxCell>
        <mxCell id="9hDXFsLS36bgd5yLtAdr-127" value="id" style="shape=partialRectangle;overflow=hidden;connectable=0;fillColor=none;top=0;left=0;bottom=0;right=0;align=left;spacingLeft=6;fontStyle=0;fontFamily=Times New Roman;fontSize=14;strokeColor=default;" parent="9hDXFsLS36bgd5yLtAdr-125" vertex="1">
          <mxGeometry x="30" width="220" height="30" as="geometry">
            <mxRectangle width="220" height="30" as="alternateBounds" />
          </mxGeometry>
        </mxCell>
        <mxCell id="9hDXFsLS36bgd5yLtAdr-128" value="" style="shape=partialRectangle;collapsible=0;dropTarget=0;pointerEvents=0;fillColor=none;points=[[0,0.5],[1,0.5]];portConstraint=eastwest;top=0;left=0;right=0;bottom=0;fontFamily=Times New Roman;fontSize=14;fontStyle=0" parent="9hDXFsLS36bgd5yLtAdr-124" vertex="1">
          <mxGeometry y="60" width="250" height="30" as="geometry" />
        </mxCell>
        <mxCell id="9hDXFsLS36bgd5yLtAdr-129" value="" style="shape=partialRectangle;overflow=hidden;connectable=0;fillColor=none;top=0;left=0;bottom=1;right=0;fontFamily=Times New Roman;fontSize=14;fontStyle=0" parent="9hDXFsLS36bgd5yLtAdr-128" vertex="1">
          <mxGeometry width="30" height="30" as="geometry">
            <mxRectangle width="30" height="30" as="alternateBounds" />
          </mxGeometry>
        </mxCell>
        <mxCell id="9hDXFsLS36bgd5yLtAdr-130" value="grade" style="shape=partialRectangle;overflow=hidden;connectable=0;fillColor=none;top=0;left=0;bottom=1;right=0;align=left;spacingLeft=6;fontFamily=Times New Roman;fontSize=14;fontStyle=0" parent="9hDXFsLS36bgd5yLtAdr-128" vertex="1">
          <mxGeometry x="30" width="220" height="30" as="geometry">
            <mxRectangle width="220" height="30" as="alternateBounds" />
          </mxGeometry>
        </mxCell>
        <mxCell id="9hDXFsLS36bgd5yLtAdr-131" style="shape=partialRectangle;collapsible=0;dropTarget=0;pointerEvents=0;fillColor=none;points=[[0,0.5],[1,0.5]];portConstraint=eastwest;top=0;left=0;right=0;bottom=0;fontFamily=Times New Roman;fontSize=14;fontStyle=0" parent="9hDXFsLS36bgd5yLtAdr-124" vertex="1">
          <mxGeometry y="90" width="250" height="30" as="geometry" />
        </mxCell>
        <mxCell id="9hDXFsLS36bgd5yLtAdr-132" value="" style="shape=partialRectangle;overflow=hidden;connectable=0;fillColor=none;top=0;left=0;bottom=1;right=0;fontFamily=Times New Roman;fontSize=14;fontStyle=0" parent="9hDXFsLS36bgd5yLtAdr-131" vertex="1">
          <mxGeometry width="30" height="30" as="geometry">
            <mxRectangle width="30" height="30" as="alternateBounds" />
          </mxGeometry>
        </mxCell>
        <mxCell id="9hDXFsLS36bgd5yLtAdr-133" value="comment" style="shape=partialRectangle;overflow=hidden;connectable=0;fillColor=none;top=0;left=0;bottom=1;right=0;align=left;spacingLeft=6;fontFamily=Times New Roman;fontSize=14;fontStyle=0" parent="9hDXFsLS36bgd5yLtAdr-131" vertex="1">
          <mxGeometry x="30" width="220" height="30" as="geometry">
            <mxRectangle width="220" height="30" as="alternateBounds" />
          </mxGeometry>
        </mxCell>
        <mxCell id="9hDXFsLS36bgd5yLtAdr-134" style="shape=partialRectangle;collapsible=0;dropTarget=0;pointerEvents=0;fillColor=none;points=[[0,0.5],[1,0.5]];portConstraint=eastwest;top=0;left=0;right=0;bottom=0;fontFamily=Times New Roman;fontSize=14;fontStyle=0" parent="9hDXFsLS36bgd5yLtAdr-124" vertex="1">
          <mxGeometry y="120" width="250" height="30" as="geometry" />
        </mxCell>
        <mxCell id="9hDXFsLS36bgd5yLtAdr-135" value="" style="shape=partialRectangle;overflow=hidden;connectable=0;fillColor=none;top=0;left=0;bottom=1;right=0;fontFamily=Times New Roman;fontSize=14;fontStyle=0" parent="9hDXFsLS36bgd5yLtAdr-134" vertex="1">
          <mxGeometry width="30" height="30" as="geometry">
            <mxRectangle width="30" height="30" as="alternateBounds" />
          </mxGeometry>
        </mxCell>
        <mxCell id="9hDXFsLS36bgd5yLtAdr-136" value="date" style="shape=partialRectangle;overflow=hidden;connectable=0;fillColor=none;top=0;left=0;bottom=1;right=0;align=left;spacingLeft=6;fontFamily=Times New Roman;fontSize=14;fontStyle=0" parent="9hDXFsLS36bgd5yLtAdr-134" vertex="1">
          <mxGeometry x="30" width="220" height="30" as="geometry">
            <mxRectangle width="220" height="30" as="alternateBounds" />
          </mxGeometry>
        </mxCell>
        <mxCell id="9hDXFsLS36bgd5yLtAdr-137" style="shape=partialRectangle;collapsible=0;dropTarget=0;pointerEvents=0;fillColor=none;points=[[0,0.5],[1,0.5]];portConstraint=eastwest;top=0;left=0;right=0;bottom=0;fontFamily=Times New Roman;fontSize=14;fontStyle=0" parent="9hDXFsLS36bgd5yLtAdr-124" vertex="1">
          <mxGeometry y="150" width="250" height="30" as="geometry" />
        </mxCell>
        <mxCell id="9hDXFsLS36bgd5yLtAdr-138" value="FK" style="shape=partialRectangle;overflow=hidden;connectable=0;fillColor=none;top=0;left=0;bottom=1;right=0;fontFamily=Times New Roman;fontSize=14;fontStyle=0" parent="9hDXFsLS36bgd5yLtAdr-137" vertex="1">
          <mxGeometry width="30" height="30" as="geometry">
            <mxRectangle width="30" height="30" as="alternateBounds" />
          </mxGeometry>
        </mxCell>
        <mxCell id="9hDXFsLS36bgd5yLtAdr-139" value="user_id" style="shape=partialRectangle;overflow=hidden;connectable=0;fillColor=none;top=0;left=0;bottom=1;right=0;align=left;spacingLeft=6;fontFamily=Times New Roman;fontSize=14;fontStyle=0" parent="9hDXFsLS36bgd5yLtAdr-137" vertex="1">
          <mxGeometry x="30" width="220" height="30" as="geometry">
            <mxRectangle width="220" height="30" as="alternateBounds" />
          </mxGeometry>
        </mxCell>
        <mxCell id="9hDXFsLS36bgd5yLtAdr-140" value="tables" style="shape=table;startSize=30;container=1;collapsible=1;childLayout=tableLayout;fixedRows=1;rowLines=0;fontStyle=0;align=center;resizeLast=1;fontFamily=Times New Roman;fontSize=14;bottom=1;" parent="1" vertex="1">
          <mxGeometry x="1230" y="1500" width="250" height="270" as="geometry">
            <mxRectangle x="120" y="110" width="110" height="30" as="alternateBounds" />
          </mxGeometry>
        </mxCell>
        <mxCell id="9hDXFsLS36bgd5yLtAdr-141" value="" style="shape=partialRectangle;collapsible=0;dropTarget=0;pointerEvents=0;fillColor=none;points=[[0,0.5],[1,0.5]];portConstraint=eastwest;top=0;left=0;right=0;bottom=1;fontFamily=Times New Roman;fontSize=14;fontStyle=0" parent="9hDXFsLS36bgd5yLtAdr-140" vertex="1">
          <mxGeometry y="30" width="250" height="30" as="geometry" />
        </mxCell>
        <mxCell id="9hDXFsLS36bgd5yLtAdr-142" value="PK" style="shape=partialRectangle;overflow=hidden;connectable=0;fillColor=none;top=0;left=0;bottom=0;right=0;fontStyle=0;fontFamily=Times New Roman;fontSize=14;" parent="9hDXFsLS36bgd5yLtAdr-141" vertex="1">
          <mxGeometry width="30" height="30" as="geometry">
            <mxRectangle width="30" height="30" as="alternateBounds" />
          </mxGeometry>
        </mxCell>
        <mxCell id="9hDXFsLS36bgd5yLtAdr-143" value="id" style="shape=partialRectangle;overflow=hidden;connectable=0;fillColor=none;top=0;left=0;bottom=0;right=0;align=left;spacingLeft=6;fontStyle=0;fontFamily=Times New Roman;fontSize=14;strokeColor=default;" parent="9hDXFsLS36bgd5yLtAdr-141" vertex="1">
          <mxGeometry x="30" width="220" height="30" as="geometry">
            <mxRectangle width="220" height="30" as="alternateBounds" />
          </mxGeometry>
        </mxCell>
        <mxCell id="9hDXFsLS36bgd5yLtAdr-144" value="" style="shape=partialRectangle;collapsible=0;dropTarget=0;pointerEvents=0;fillColor=none;points=[[0,0.5],[1,0.5]];portConstraint=eastwest;top=0;left=0;right=0;bottom=0;fontFamily=Times New Roman;fontSize=14;fontStyle=0" parent="9hDXFsLS36bgd5yLtAdr-140" vertex="1">
          <mxGeometry y="60" width="250" height="30" as="geometry" />
        </mxCell>
        <mxCell id="9hDXFsLS36bgd5yLtAdr-145" value="" style="shape=partialRectangle;overflow=hidden;connectable=0;fillColor=none;top=0;left=0;bottom=1;right=0;fontFamily=Times New Roman;fontSize=14;fontStyle=0" parent="9hDXFsLS36bgd5yLtAdr-144" vertex="1">
          <mxGeometry width="30" height="30" as="geometry">
            <mxRectangle width="30" height="30" as="alternateBounds" />
          </mxGeometry>
        </mxCell>
        <mxCell id="9hDXFsLS36bgd5yLtAdr-146" value="places" style="shape=partialRectangle;overflow=hidden;connectable=0;fillColor=none;top=0;left=0;bottom=1;right=0;align=left;spacingLeft=6;fontFamily=Times New Roman;fontSize=14;fontStyle=0" parent="9hDXFsLS36bgd5yLtAdr-144" vertex="1">
          <mxGeometry x="30" width="220" height="30" as="geometry">
            <mxRectangle width="220" height="30" as="alternateBounds" />
          </mxGeometry>
        </mxCell>
        <mxCell id="9hDXFsLS36bgd5yLtAdr-147" style="shape=partialRectangle;collapsible=0;dropTarget=0;pointerEvents=0;fillColor=none;points=[[0,0.5],[1,0.5]];portConstraint=eastwest;top=0;left=0;right=0;bottom=0;fontFamily=Times New Roman;fontSize=14;fontStyle=0" parent="9hDXFsLS36bgd5yLtAdr-140" vertex="1">
          <mxGeometry y="90" width="250" height="30" as="geometry" />
        </mxCell>
        <mxCell id="9hDXFsLS36bgd5yLtAdr-148" value="" style="shape=partialRectangle;overflow=hidden;connectable=0;fillColor=none;top=0;left=0;bottom=1;right=0;fontFamily=Times New Roman;fontSize=14;fontStyle=0" parent="9hDXFsLS36bgd5yLtAdr-147" vertex="1">
          <mxGeometry width="30" height="30" as="geometry">
            <mxRectangle width="30" height="30" as="alternateBounds" />
          </mxGeometry>
        </mxCell>
        <mxCell id="9hDXFsLS36bgd5yLtAdr-149" value="price" style="shape=partialRectangle;overflow=hidden;connectable=0;fillColor=none;top=0;left=0;bottom=1;right=0;align=left;spacingLeft=6;fontFamily=Times New Roman;fontSize=14;fontStyle=0" parent="9hDXFsLS36bgd5yLtAdr-147" vertex="1">
          <mxGeometry x="30" width="220" height="30" as="geometry">
            <mxRectangle width="220" height="30" as="alternateBounds" />
          </mxGeometry>
        </mxCell>
        <mxCell id="9hDXFsLS36bgd5yLtAdr-150" style="shape=partialRectangle;collapsible=0;dropTarget=0;pointerEvents=0;fillColor=none;points=[[0,0.5],[1,0.5]];portConstraint=eastwest;top=0;left=0;right=0;bottom=0;fontFamily=Times New Roman;fontSize=14;fontStyle=0" parent="9hDXFsLS36bgd5yLtAdr-140" vertex="1">
          <mxGeometry y="120" width="250" height="30" as="geometry" />
        </mxCell>
        <mxCell id="9hDXFsLS36bgd5yLtAdr-151" value="" style="shape=partialRectangle;overflow=hidden;connectable=0;fillColor=none;top=0;left=0;bottom=1;right=0;fontFamily=Times New Roman;fontSize=14;fontStyle=0" parent="9hDXFsLS36bgd5yLtAdr-150" vertex="1">
          <mxGeometry width="30" height="30" as="geometry">
            <mxRectangle width="30" height="30" as="alternateBounds" />
          </mxGeometry>
        </mxCell>
        <mxCell id="9hDXFsLS36bgd5yLtAdr-152" value="position_x" style="shape=partialRectangle;overflow=hidden;connectable=0;fillColor=none;top=0;left=0;bottom=1;right=0;align=left;spacingLeft=6;fontFamily=Times New Roman;fontSize=14;fontStyle=0" parent="9hDXFsLS36bgd5yLtAdr-150" vertex="1">
          <mxGeometry x="30" width="220" height="30" as="geometry">
            <mxRectangle width="220" height="30" as="alternateBounds" />
          </mxGeometry>
        </mxCell>
        <mxCell id="9hDXFsLS36bgd5yLtAdr-153" style="shape=partialRectangle;collapsible=0;dropTarget=0;pointerEvents=0;fillColor=none;points=[[0,0.5],[1,0.5]];portConstraint=eastwest;top=0;left=0;right=0;bottom=0;fontFamily=Times New Roman;fontSize=14;fontStyle=0" parent="9hDXFsLS36bgd5yLtAdr-140" vertex="1">
          <mxGeometry y="150" width="250" height="30" as="geometry" />
        </mxCell>
        <mxCell id="9hDXFsLS36bgd5yLtAdr-154" value="" style="shape=partialRectangle;overflow=hidden;connectable=0;fillColor=none;top=0;left=0;bottom=1;right=0;fontFamily=Times New Roman;fontSize=14;fontStyle=0" parent="9hDXFsLS36bgd5yLtAdr-153" vertex="1">
          <mxGeometry width="30" height="30" as="geometry">
            <mxRectangle width="30" height="30" as="alternateBounds" />
          </mxGeometry>
        </mxCell>
        <mxCell id="9hDXFsLS36bgd5yLtAdr-155" value="position_y" style="shape=partialRectangle;overflow=hidden;connectable=0;fillColor=none;top=0;left=0;bottom=1;right=0;align=left;spacingLeft=6;fontFamily=Times New Roman;fontSize=14;fontStyle=0" parent="9hDXFsLS36bgd5yLtAdr-153" vertex="1">
          <mxGeometry x="30" width="220" height="30" as="geometry">
            <mxRectangle width="220" height="30" as="alternateBounds" />
          </mxGeometry>
        </mxCell>
        <mxCell id="9hDXFsLS36bgd5yLtAdr-156" value="" style="shape=partialRectangle;collapsible=0;dropTarget=0;pointerEvents=0;fillColor=none;points=[[0,0.5],[1,0.5]];portConstraint=eastwest;top=0;left=0;right=0;bottom=0;fontFamily=Times New Roman;fontSize=14;fontStyle=0" parent="9hDXFsLS36bgd5yLtAdr-140" vertex="1">
          <mxGeometry y="180" width="250" height="30" as="geometry" />
        </mxCell>
        <mxCell id="9hDXFsLS36bgd5yLtAdr-157" value="" style="shape=partialRectangle;overflow=hidden;connectable=0;fillColor=none;top=0;left=0;bottom=1;right=0;fontFamily=Times New Roman;fontSize=14;fontStyle=0" parent="9hDXFsLS36bgd5yLtAdr-156" vertex="1">
          <mxGeometry width="30" height="30" as="geometry">
            <mxRectangle width="30" height="30" as="alternateBounds" />
          </mxGeometry>
        </mxCell>
        <mxCell id="9hDXFsLS36bgd5yLtAdr-158" value="rotation" style="shape=partialRectangle;overflow=hidden;connectable=0;fillColor=none;top=0;left=0;bottom=1;right=0;align=left;spacingLeft=6;fontFamily=Times New Roman;fontSize=14;fontStyle=0" parent="9hDXFsLS36bgd5yLtAdr-156" vertex="1">
          <mxGeometry x="30" width="220" height="30" as="geometry">
            <mxRectangle width="220" height="30" as="alternateBounds" />
          </mxGeometry>
        </mxCell>
        <mxCell id="9hDXFsLS36bgd5yLtAdr-159" value="" style="shape=partialRectangle;collapsible=0;dropTarget=0;pointerEvents=0;fillColor=none;points=[[0,0.5],[1,0.5]];portConstraint=eastwest;top=0;left=0;right=0;bottom=0;fontFamily=Times New Roman;fontSize=14;fontStyle=0" parent="9hDXFsLS36bgd5yLtAdr-140" vertex="1">
          <mxGeometry y="210" width="250" height="30" as="geometry" />
        </mxCell>
        <mxCell id="9hDXFsLS36bgd5yLtAdr-160" value="" style="shape=partialRectangle;overflow=hidden;connectable=0;fillColor=none;top=0;left=0;bottom=1;right=0;fontFamily=Times New Roman;fontSize=14;fontStyle=0" parent="9hDXFsLS36bgd5yLtAdr-159" vertex="1">
          <mxGeometry width="30" height="30" as="geometry">
            <mxRectangle width="30" height="30" as="alternateBounds" />
          </mxGeometry>
        </mxCell>
        <mxCell id="9hDXFsLS36bgd5yLtAdr-161" value="scale_x" style="shape=partialRectangle;overflow=hidden;connectable=0;fillColor=none;top=0;left=0;bottom=1;right=0;align=left;spacingLeft=6;fontFamily=Times New Roman;fontSize=14;fontStyle=0" parent="9hDXFsLS36bgd5yLtAdr-159" vertex="1">
          <mxGeometry x="30" width="220" height="30" as="geometry">
            <mxRectangle width="220" height="30" as="alternateBounds" />
          </mxGeometry>
        </mxCell>
        <mxCell id="9hDXFsLS36bgd5yLtAdr-162" value="" style="shape=partialRectangle;collapsible=0;dropTarget=0;pointerEvents=0;fillColor=none;points=[[0,0.5],[1,0.5]];portConstraint=eastwest;top=0;left=0;right=0;bottom=0;fontFamily=Times New Roman;fontSize=14;fontStyle=0" parent="9hDXFsLS36bgd5yLtAdr-140" vertex="1">
          <mxGeometry y="240" width="250" height="30" as="geometry" />
        </mxCell>
        <mxCell id="9hDXFsLS36bgd5yLtAdr-163" value="" style="shape=partialRectangle;overflow=hidden;connectable=0;fillColor=none;top=0;left=0;bottom=1;right=0;fontFamily=Times New Roman;fontSize=14;fontStyle=0" parent="9hDXFsLS36bgd5yLtAdr-162" vertex="1">
          <mxGeometry width="30" height="30" as="geometry">
            <mxRectangle width="30" height="30" as="alternateBounds" />
          </mxGeometry>
        </mxCell>
        <mxCell id="9hDXFsLS36bgd5yLtAdr-164" value="scale_y" style="shape=partialRectangle;overflow=hidden;connectable=0;fillColor=none;top=0;left=0;bottom=1;right=0;align=left;spacingLeft=6;fontFamily=Times New Roman;fontSize=14;fontStyle=0" parent="9hDXFsLS36bgd5yLtAdr-162" vertex="1">
          <mxGeometry x="30" width="220" height="30" as="geometry">
            <mxRectangle width="220" height="30" as="alternateBounds" />
          </mxGeometry>
        </mxCell>
        <mxCell id="9hDXFsLS36bgd5yLtAdr-165" value="reservations" style="shape=table;startSize=30;container=1;collapsible=1;childLayout=tableLayout;fixedRows=1;rowLines=0;fontStyle=0;align=center;resizeLast=1;fontFamily=Times New Roman;fontSize=14;bottom=1;" parent="1" vertex="1">
          <mxGeometry x="920" y="1350" width="250" height="240" as="geometry">
            <mxRectangle x="120" y="110" width="110" height="30" as="alternateBounds" />
          </mxGeometry>
        </mxCell>
        <mxCell id="9hDXFsLS36bgd5yLtAdr-166" value="" style="shape=partialRectangle;collapsible=0;dropTarget=0;pointerEvents=0;fillColor=none;points=[[0,0.5],[1,0.5]];portConstraint=eastwest;top=0;left=0;right=0;bottom=1;fontFamily=Times New Roman;fontSize=14;fontStyle=0" parent="9hDXFsLS36bgd5yLtAdr-165" vertex="1">
          <mxGeometry y="30" width="250" height="30" as="geometry" />
        </mxCell>
        <mxCell id="9hDXFsLS36bgd5yLtAdr-167" value="PK" style="shape=partialRectangle;overflow=hidden;connectable=0;fillColor=none;top=0;left=0;bottom=0;right=0;fontStyle=0;fontFamily=Times New Roman;fontSize=14;" parent="9hDXFsLS36bgd5yLtAdr-166" vertex="1">
          <mxGeometry width="30" height="30" as="geometry">
            <mxRectangle width="30" height="30" as="alternateBounds" />
          </mxGeometry>
        </mxCell>
        <mxCell id="9hDXFsLS36bgd5yLtAdr-168" value="id" style="shape=partialRectangle;overflow=hidden;connectable=0;fillColor=none;top=0;left=0;bottom=0;right=0;align=left;spacingLeft=6;fontStyle=0;fontFamily=Times New Roman;fontSize=14;strokeColor=default;" parent="9hDXFsLS36bgd5yLtAdr-166" vertex="1">
          <mxGeometry x="30" width="220" height="30" as="geometry">
            <mxRectangle width="220" height="30" as="alternateBounds" />
          </mxGeometry>
        </mxCell>
        <mxCell id="9hDXFsLS36bgd5yLtAdr-169" value="" style="shape=partialRectangle;collapsible=0;dropTarget=0;pointerEvents=0;fillColor=none;points=[[0,0.5],[1,0.5]];portConstraint=eastwest;top=0;left=0;right=0;bottom=0;fontFamily=Times New Roman;fontSize=14;fontStyle=0" parent="9hDXFsLS36bgd5yLtAdr-165" vertex="1">
          <mxGeometry y="60" width="250" height="30" as="geometry" />
        </mxCell>
        <mxCell id="9hDXFsLS36bgd5yLtAdr-170" value="" style="shape=partialRectangle;overflow=hidden;connectable=0;fillColor=none;top=0;left=0;bottom=1;right=0;fontFamily=Times New Roman;fontSize=14;fontStyle=0" parent="9hDXFsLS36bgd5yLtAdr-169" vertex="1">
          <mxGeometry width="30" height="30" as="geometry">
            <mxRectangle width="30" height="30" as="alternateBounds" />
          </mxGeometry>
        </mxCell>
        <mxCell id="9hDXFsLS36bgd5yLtAdr-171" value="price" style="shape=partialRectangle;overflow=hidden;connectable=0;fillColor=none;top=0;left=0;bottom=1;right=0;align=left;spacingLeft=6;fontFamily=Times New Roman;fontSize=14;fontStyle=0" parent="9hDXFsLS36bgd5yLtAdr-169" vertex="1">
          <mxGeometry x="30" width="220" height="30" as="geometry">
            <mxRectangle width="220" height="30" as="alternateBounds" />
          </mxGeometry>
        </mxCell>
        <mxCell id="9hDXFsLS36bgd5yLtAdr-172" style="shape=partialRectangle;collapsible=0;dropTarget=0;pointerEvents=0;fillColor=none;points=[[0,0.5],[1,0.5]];portConstraint=eastwest;top=0;left=0;right=0;bottom=0;fontFamily=Times New Roman;fontSize=14;fontStyle=0" parent="9hDXFsLS36bgd5yLtAdr-165" vertex="1">
          <mxGeometry y="90" width="250" height="30" as="geometry" />
        </mxCell>
        <mxCell id="9hDXFsLS36bgd5yLtAdr-173" value="" style="shape=partialRectangle;overflow=hidden;connectable=0;fillColor=none;top=0;left=0;bottom=1;right=0;fontFamily=Times New Roman;fontSize=14;fontStyle=0" parent="9hDXFsLS36bgd5yLtAdr-172" vertex="1">
          <mxGeometry width="30" height="30" as="geometry">
            <mxRectangle width="30" height="30" as="alternateBounds" />
          </mxGeometry>
        </mxCell>
        <mxCell id="9hDXFsLS36bgd5yLtAdr-174" value="start_date" style="shape=partialRectangle;overflow=hidden;connectable=0;fillColor=none;top=0;left=0;bottom=1;right=0;align=left;spacingLeft=6;fontFamily=Times New Roman;fontSize=14;fontStyle=0" parent="9hDXFsLS36bgd5yLtAdr-172" vertex="1">
          <mxGeometry x="30" width="220" height="30" as="geometry">
            <mxRectangle width="220" height="30" as="alternateBounds" />
          </mxGeometry>
        </mxCell>
        <mxCell id="9hDXFsLS36bgd5yLtAdr-175" style="shape=partialRectangle;collapsible=0;dropTarget=0;pointerEvents=0;fillColor=none;points=[[0,0.5],[1,0.5]];portConstraint=eastwest;top=0;left=0;right=0;bottom=0;fontFamily=Times New Roman;fontSize=14;fontStyle=0" parent="9hDXFsLS36bgd5yLtAdr-165" vertex="1">
          <mxGeometry y="120" width="250" height="30" as="geometry" />
        </mxCell>
        <mxCell id="9hDXFsLS36bgd5yLtAdr-176" value="" style="shape=partialRectangle;overflow=hidden;connectable=0;fillColor=none;top=0;left=0;bottom=1;right=0;fontFamily=Times New Roman;fontSize=14;fontStyle=0" parent="9hDXFsLS36bgd5yLtAdr-175" vertex="1">
          <mxGeometry width="30" height="30" as="geometry">
            <mxRectangle width="30" height="30" as="alternateBounds" />
          </mxGeometry>
        </mxCell>
        <mxCell id="9hDXFsLS36bgd5yLtAdr-177" value="end_date" style="shape=partialRectangle;overflow=hidden;connectable=0;fillColor=none;top=0;left=0;bottom=1;right=0;align=left;spacingLeft=6;fontFamily=Times New Roman;fontSize=14;fontStyle=0" parent="9hDXFsLS36bgd5yLtAdr-175" vertex="1">
          <mxGeometry x="30" width="220" height="30" as="geometry">
            <mxRectangle width="220" height="30" as="alternateBounds" />
          </mxGeometry>
        </mxCell>
        <mxCell id="9hDXFsLS36bgd5yLtAdr-178" style="shape=partialRectangle;collapsible=0;dropTarget=0;pointerEvents=0;fillColor=none;points=[[0,0.5],[1,0.5]];portConstraint=eastwest;top=0;left=0;right=0;bottom=0;fontFamily=Times New Roman;fontSize=14;fontStyle=0" parent="9hDXFsLS36bgd5yLtAdr-165" vertex="1">
          <mxGeometry y="150" width="250" height="30" as="geometry" />
        </mxCell>
        <mxCell id="9hDXFsLS36bgd5yLtAdr-179" value="" style="shape=partialRectangle;overflow=hidden;connectable=0;fillColor=none;top=0;left=0;bottom=1;right=0;fontFamily=Times New Roman;fontSize=14;fontStyle=0" parent="9hDXFsLS36bgd5yLtAdr-178" vertex="1">
          <mxGeometry width="30" height="30" as="geometry">
            <mxRectangle width="30" height="30" as="alternateBounds" />
          </mxGeometry>
        </mxCell>
        <mxCell id="9hDXFsLS36bgd5yLtAdr-180" value="date" style="shape=partialRectangle;overflow=hidden;connectable=0;fillColor=none;top=0;left=0;bottom=1;right=0;align=left;spacingLeft=6;fontFamily=Times New Roman;fontSize=14;fontStyle=0" parent="9hDXFsLS36bgd5yLtAdr-178" vertex="1">
          <mxGeometry x="30" width="220" height="30" as="geometry">
            <mxRectangle width="220" height="30" as="alternateBounds" />
          </mxGeometry>
        </mxCell>
        <mxCell id="9hDXFsLS36bgd5yLtAdr-181" value="" style="shape=partialRectangle;collapsible=0;dropTarget=0;pointerEvents=0;fillColor=none;points=[[0,0.5],[1,0.5]];portConstraint=eastwest;top=0;left=0;right=0;bottom=0;fontFamily=Times New Roman;fontSize=14;fontStyle=0" parent="9hDXFsLS36bgd5yLtAdr-165" vertex="1">
          <mxGeometry y="180" width="250" height="30" as="geometry" />
        </mxCell>
        <mxCell id="9hDXFsLS36bgd5yLtAdr-182" value="FK" style="shape=partialRectangle;overflow=hidden;connectable=0;fillColor=none;top=0;left=0;bottom=1;right=0;fontFamily=Times New Roman;fontSize=14;fontStyle=0" parent="9hDXFsLS36bgd5yLtAdr-181" vertex="1">
          <mxGeometry width="30" height="30" as="geometry">
            <mxRectangle width="30" height="30" as="alternateBounds" />
          </mxGeometry>
        </mxCell>
        <mxCell id="9hDXFsLS36bgd5yLtAdr-183" value="table_id" style="shape=partialRectangle;overflow=hidden;connectable=0;fillColor=none;top=0;left=0;bottom=1;right=0;align=left;spacingLeft=6;fontFamily=Times New Roman;fontSize=14;fontStyle=0" parent="9hDXFsLS36bgd5yLtAdr-181" vertex="1">
          <mxGeometry x="30" width="220" height="30" as="geometry">
            <mxRectangle width="220" height="30" as="alternateBounds" />
          </mxGeometry>
        </mxCell>
        <mxCell id="9hDXFsLS36bgd5yLtAdr-184" value="" style="shape=partialRectangle;collapsible=0;dropTarget=0;pointerEvents=0;fillColor=none;points=[[0,0.5],[1,0.5]];portConstraint=eastwest;top=0;left=0;right=0;bottom=0;fontFamily=Times New Roman;fontSize=14;fontStyle=0" parent="9hDXFsLS36bgd5yLtAdr-165" vertex="1">
          <mxGeometry y="210" width="250" height="30" as="geometry" />
        </mxCell>
        <mxCell id="9hDXFsLS36bgd5yLtAdr-185" value="FK" style="shape=partialRectangle;overflow=hidden;connectable=0;fillColor=none;top=0;left=0;bottom=1;right=0;fontFamily=Times New Roman;fontSize=14;fontStyle=0" parent="9hDXFsLS36bgd5yLtAdr-184" vertex="1">
          <mxGeometry width="30" height="30" as="geometry">
            <mxRectangle width="30" height="30" as="alternateBounds" />
          </mxGeometry>
        </mxCell>
        <mxCell id="9hDXFsLS36bgd5yLtAdr-186" value="customer_id" style="shape=partialRectangle;overflow=hidden;connectable=0;fillColor=none;top=0;left=0;bottom=1;right=0;align=left;spacingLeft=6;fontFamily=Times New Roman;fontSize=14;fontStyle=0" parent="9hDXFsLS36bgd5yLtAdr-184" vertex="1">
          <mxGeometry x="30" width="220" height="30" as="geometry">
            <mxRectangle width="220" height="30" as="alternateBounds" />
          </mxGeometry>
        </mxCell>
        <mxCell id="9hDXFsLS36bgd5yLtAdr-187" value="categories" style="shape=table;startSize=30;container=1;collapsible=1;childLayout=tableLayout;fixedRows=1;rowLines=0;fontStyle=0;align=center;resizeLast=1;fontFamily=Times New Roman;fontSize=14;bottom=1;" parent="1" vertex="1">
          <mxGeometry x="1230" y="1830" width="250" height="90" as="geometry">
            <mxRectangle x="120" y="110" width="110" height="30" as="alternateBounds" />
          </mxGeometry>
        </mxCell>
        <mxCell id="9hDXFsLS36bgd5yLtAdr-188" value="" style="shape=partialRectangle;collapsible=0;dropTarget=0;pointerEvents=0;fillColor=none;points=[[0,0.5],[1,0.5]];portConstraint=eastwest;top=0;left=0;right=0;bottom=1;fontFamily=Times New Roman;fontSize=14;fontStyle=0" parent="9hDXFsLS36bgd5yLtAdr-187" vertex="1">
          <mxGeometry y="30" width="250" height="30" as="geometry" />
        </mxCell>
        <mxCell id="9hDXFsLS36bgd5yLtAdr-189" value="PK" style="shape=partialRectangle;overflow=hidden;connectable=0;fillColor=none;top=0;left=0;bottom=0;right=0;fontStyle=0;fontFamily=Times New Roman;fontSize=14;" parent="9hDXFsLS36bgd5yLtAdr-188" vertex="1">
          <mxGeometry width="30" height="30" as="geometry">
            <mxRectangle width="30" height="30" as="alternateBounds" />
          </mxGeometry>
        </mxCell>
        <mxCell id="9hDXFsLS36bgd5yLtAdr-190" value="id" style="shape=partialRectangle;overflow=hidden;connectable=0;fillColor=none;top=0;left=0;bottom=0;right=0;align=left;spacingLeft=6;fontStyle=0;fontFamily=Times New Roman;fontSize=14;strokeColor=default;" parent="9hDXFsLS36bgd5yLtAdr-188" vertex="1">
          <mxGeometry x="30" width="220" height="30" as="geometry">
            <mxRectangle width="220" height="30" as="alternateBounds" />
          </mxGeometry>
        </mxCell>
        <mxCell id="9hDXFsLS36bgd5yLtAdr-191" value="" style="shape=partialRectangle;collapsible=0;dropTarget=0;pointerEvents=0;fillColor=none;points=[[0,0.5],[1,0.5]];portConstraint=eastwest;top=0;left=0;right=0;bottom=0;fontFamily=Times New Roman;fontSize=14;fontStyle=0" parent="9hDXFsLS36bgd5yLtAdr-187" vertex="1">
          <mxGeometry y="60" width="250" height="30" as="geometry" />
        </mxCell>
        <mxCell id="9hDXFsLS36bgd5yLtAdr-192" value="" style="shape=partialRectangle;overflow=hidden;connectable=0;fillColor=none;top=0;left=0;bottom=1;right=0;fontFamily=Times New Roman;fontSize=14;fontStyle=0" parent="9hDXFsLS36bgd5yLtAdr-191" vertex="1">
          <mxGeometry width="30" height="30" as="geometry">
            <mxRectangle width="30" height="30" as="alternateBounds" />
          </mxGeometry>
        </mxCell>
        <mxCell id="9hDXFsLS36bgd5yLtAdr-193" value="name" style="shape=partialRectangle;overflow=hidden;connectable=0;fillColor=none;top=0;left=0;bottom=1;right=0;align=left;spacingLeft=6;fontFamily=Times New Roman;fontSize=14;fontStyle=0" parent="9hDXFsLS36bgd5yLtAdr-191" vertex="1">
          <mxGeometry x="30" width="220" height="30" as="geometry">
            <mxRectangle width="220" height="30" as="alternateBounds" />
          </mxGeometry>
        </mxCell>
        <mxCell id="9hDXFsLS36bgd5yLtAdr-194" value="statuses" style="shape=table;startSize=30;container=1;collapsible=1;childLayout=tableLayout;fixedRows=1;rowLines=0;fontStyle=0;align=center;resizeLast=1;fontFamily=Times New Roman;fontSize=14;bottom=1;" parent="1" vertex="1">
          <mxGeometry x="610" y="1850" width="250" height="90" as="geometry">
            <mxRectangle x="120" y="110" width="110" height="30" as="alternateBounds" />
          </mxGeometry>
        </mxCell>
        <mxCell id="9hDXFsLS36bgd5yLtAdr-195" value="" style="shape=partialRectangle;collapsible=0;dropTarget=0;pointerEvents=0;fillColor=none;points=[[0,0.5],[1,0.5]];portConstraint=eastwest;top=0;left=0;right=0;bottom=1;fontFamily=Times New Roman;fontSize=14;fontStyle=0" parent="9hDXFsLS36bgd5yLtAdr-194" vertex="1">
          <mxGeometry y="30" width="250" height="30" as="geometry" />
        </mxCell>
        <mxCell id="9hDXFsLS36bgd5yLtAdr-196" value="PK" style="shape=partialRectangle;overflow=hidden;connectable=0;fillColor=none;top=0;left=0;bottom=0;right=0;fontStyle=0;fontFamily=Times New Roman;fontSize=14;" parent="9hDXFsLS36bgd5yLtAdr-195" vertex="1">
          <mxGeometry width="30" height="30" as="geometry">
            <mxRectangle width="30" height="30" as="alternateBounds" />
          </mxGeometry>
        </mxCell>
        <mxCell id="9hDXFsLS36bgd5yLtAdr-197" value="id" style="shape=partialRectangle;overflow=hidden;connectable=0;fillColor=none;top=0;left=0;bottom=0;right=0;align=left;spacingLeft=6;fontStyle=0;fontFamily=Times New Roman;fontSize=14;strokeColor=default;" parent="9hDXFsLS36bgd5yLtAdr-195" vertex="1">
          <mxGeometry x="30" width="220" height="30" as="geometry">
            <mxRectangle width="220" height="30" as="alternateBounds" />
          </mxGeometry>
        </mxCell>
        <mxCell id="9hDXFsLS36bgd5yLtAdr-198" value="" style="shape=partialRectangle;collapsible=0;dropTarget=0;pointerEvents=0;fillColor=none;points=[[0,0.5],[1,0.5]];portConstraint=eastwest;top=0;left=0;right=0;bottom=0;fontFamily=Times New Roman;fontSize=14;fontStyle=0" parent="9hDXFsLS36bgd5yLtAdr-194" vertex="1">
          <mxGeometry y="60" width="250" height="30" as="geometry" />
        </mxCell>
        <mxCell id="9hDXFsLS36bgd5yLtAdr-199" value="" style="shape=partialRectangle;overflow=hidden;connectable=0;fillColor=none;top=0;left=0;bottom=1;right=0;fontFamily=Times New Roman;fontSize=14;fontStyle=0" parent="9hDXFsLS36bgd5yLtAdr-198" vertex="1">
          <mxGeometry width="30" height="30" as="geometry">
            <mxRectangle width="30" height="30" as="alternateBounds" />
          </mxGeometry>
        </mxCell>
        <mxCell id="9hDXFsLS36bgd5yLtAdr-200" value="name" style="shape=partialRectangle;overflow=hidden;connectable=0;fillColor=none;top=0;left=0;bottom=1;right=0;align=left;spacingLeft=6;fontFamily=Times New Roman;fontSize=14;fontStyle=0" parent="9hDXFsLS36bgd5yLtAdr-198" vertex="1">
          <mxGeometry x="30" width="220" height="30" as="geometry">
            <mxRectangle width="220" height="30" as="alternateBounds" />
          </mxGeometry>
        </mxCell>
        <mxCell id="9hDXFsLS36bgd5yLtAdr-201" style="edgeStyle=orthogonalEdgeStyle;rounded=0;orthogonalLoop=1;jettySize=auto;html=1;startArrow=ERoneToMany;startFill=0;endArrow=ERmandOne;endFill=0;jumpStyle=arc;fontStyle=0" parent="1" source="9hDXFsLS36bgd5yLtAdr-23" target="9hDXFsLS36bgd5yLtAdr-30" edge="1">
          <mxGeometry relative="1" as="geometry">
            <Array as="points">
              <mxPoint x="570" y="1525" />
              <mxPoint x="570" y="1525" />
            </Array>
          </mxGeometry>
        </mxCell>
        <mxCell id="9hDXFsLS36bgd5yLtAdr-202" style="edgeStyle=orthogonalEdgeStyle;rounded=0;orthogonalLoop=1;jettySize=auto;html=1;startArrow=ERzeroToMany;startFill=0;endArrow=ERmandOne;endFill=0;jumpStyle=arc;fontStyle=0" parent="1" source="9hDXFsLS36bgd5yLtAdr-26" target="9hDXFsLS36bgd5yLtAdr-84" edge="1">
          <mxGeometry relative="1" as="geometry">
            <Array as="points">
              <mxPoint x="270" y="1560" />
              <mxPoint x="270" y="1755" />
            </Array>
          </mxGeometry>
        </mxCell>
        <mxCell id="9hDXFsLS36bgd5yLtAdr-203" style="edgeStyle=orthogonalEdgeStyle;rounded=0;orthogonalLoop=1;jettySize=auto;html=1;startArrow=ERoneToMany;startFill=0;endArrow=ERmandOne;endFill=0;jumpStyle=arc;fontStyle=0" parent="1" source="9hDXFsLS36bgd5yLtAdr-80" target="9hDXFsLS36bgd5yLtAdr-188" edge="1">
          <mxGeometry relative="1" as="geometry">
            <Array as="points">
              <mxPoint x="1280" y="1875" />
              <mxPoint x="1280" y="1875" />
            </Array>
          </mxGeometry>
        </mxCell>
        <mxCell id="9hDXFsLS36bgd5yLtAdr-204" style="edgeStyle=orthogonalEdgeStyle;rounded=0;orthogonalLoop=1;jettySize=auto;html=1;startArrow=ERoneToMany;startFill=0;endArrow=ERmandOne;endFill=0;jumpStyle=arc;fontStyle=0" parent="1" source="9hDXFsLS36bgd5yLtAdr-102" target="9hDXFsLS36bgd5yLtAdr-195" edge="1">
          <mxGeometry relative="1" as="geometry">
            <Array as="points">
              <mxPoint x="580" y="1935" />
              <mxPoint x="580" y="1895" />
            </Array>
          </mxGeometry>
        </mxCell>
        <mxCell id="9hDXFsLS36bgd5yLtAdr-205" style="edgeStyle=orthogonalEdgeStyle;rounded=0;orthogonalLoop=1;jettySize=auto;html=1;startArrow=ERoneToMany;startFill=0;endArrow=ERmandOne;endFill=0;jumpStyle=arc;fontStyle=0" parent="1" source="9hDXFsLS36bgd5yLtAdr-55" target="9hDXFsLS36bgd5yLtAdr-2" edge="1">
          <mxGeometry relative="1" as="geometry">
            <Array as="points">
              <mxPoint x="-80" y="1875" />
              <mxPoint x="-80" y="1315" />
            </Array>
            <mxPoint x="-110" y="1870.0149253731342" as="sourcePoint" />
            <mxPoint x="300" y="1315" as="targetPoint" />
          </mxGeometry>
        </mxCell>
        <mxCell id="9hDXFsLS36bgd5yLtAdr-206" style="edgeStyle=orthogonalEdgeStyle;rounded=0;orthogonalLoop=1;jettySize=auto;html=1;startArrow=ERoneToMany;startFill=0;endArrow=ERmandOne;endFill=0;jumpStyle=arc;fontStyle=0" parent="1" source="9hDXFsLS36bgd5yLtAdr-105" target="9hDXFsLS36bgd5yLtAdr-2" edge="1">
          <mxGeometry relative="1" as="geometry">
            <Array as="points">
              <mxPoint x="1510" y="1965" />
              <mxPoint x="1510" y="1220" />
              <mxPoint x="210" y="1220" />
              <mxPoint x="210" y="1315" />
            </Array>
            <mxPoint x="470" y="1955" as="sourcePoint" />
            <mxPoint x="550" y="1310.025641025641" as="targetPoint" />
          </mxGeometry>
        </mxCell>
        <mxCell id="9hDXFsLS36bgd5yLtAdr-208" style="edgeStyle=orthogonalEdgeStyle;rounded=0;orthogonalLoop=1;jettySize=auto;html=1;startArrow=ERzeroToMany;startFill=0;endArrow=ERmandOne;endFill=0;jumpStyle=arc;fontStyle=0" parent="1" source="9hDXFsLS36bgd5yLtAdr-108" target="9hDXFsLS36bgd5yLtAdr-2" edge="1">
          <mxGeometry relative="1" as="geometry">
            <Array as="points">
              <mxPoint x="-100" y="1995" />
              <mxPoint x="-100" y="1315" />
            </Array>
            <mxPoint x="220" y="1991.0149253731342" as="sourcePoint" />
            <mxPoint x="300" y="1306" as="targetPoint" />
          </mxGeometry>
        </mxCell>
        <mxCell id="9hDXFsLS36bgd5yLtAdr-209" style="edgeStyle=orthogonalEdgeStyle;rounded=0;orthogonalLoop=1;jettySize=auto;html=1;startArrow=ERoneToMany;startFill=0;endArrow=ERmandOne;endFill=0;jumpStyle=arc;fontStyle=0" parent="1" source="9hDXFsLS36bgd5yLtAdr-118" target="9hDXFsLS36bgd5yLtAdr-59" edge="1">
          <mxGeometry relative="1" as="geometry">
            <Array as="points">
              <mxPoint x="890" y="1725" />
              <mxPoint x="890" y="1665" />
            </Array>
          </mxGeometry>
        </mxCell>
        <mxCell id="9hDXFsLS36bgd5yLtAdr-210" style="edgeStyle=orthogonalEdgeStyle;rounded=0;orthogonalLoop=1;jettySize=auto;html=1;startArrow=ERoneToMany;startFill=0;endArrow=ERmandOne;endFill=0;jumpStyle=arc;fontStyle=0" parent="1" source="9hDXFsLS36bgd5yLtAdr-121" target="9hDXFsLS36bgd5yLtAdr-84" edge="1">
          <mxGeometry relative="1" as="geometry">
            <Array as="points">
              <mxPoint x="630" y="1755" />
              <mxPoint x="630" y="1755" />
            </Array>
          </mxGeometry>
        </mxCell>
        <mxCell id="9hDXFsLS36bgd5yLtAdr-211" style="edgeStyle=orthogonalEdgeStyle;rounded=0;orthogonalLoop=1;jettySize=auto;html=1;startArrow=ERoneToMany;startFill=0;endArrow=ERmandOne;endFill=0;jumpStyle=arc;fontStyle=0" parent="1" source="9hDXFsLS36bgd5yLtAdr-137" target="9hDXFsLS36bgd5yLtAdr-2" edge="1">
          <mxGeometry relative="1" as="geometry">
            <Array as="points">
              <mxPoint x="250" y="1545" />
              <mxPoint x="250" y="1315" />
            </Array>
            <mxPoint x="140" y="1539.0149253731342" as="sourcePoint" />
            <mxPoint x="300" y="1324" as="targetPoint" />
          </mxGeometry>
        </mxCell>
        <mxCell id="9hDXFsLS36bgd5yLtAdr-212" style="edgeStyle=orthogonalEdgeStyle;rounded=0;orthogonalLoop=1;jettySize=auto;html=1;startArrow=ERoneToMany;startFill=0;endArrow=ERmandOne;endFill=0;jumpStyle=arc;fontStyle=0" parent="1" source="9hDXFsLS36bgd5yLtAdr-181" target="9hDXFsLS36bgd5yLtAdr-141" edge="1">
          <mxGeometry relative="1" as="geometry">
            <Array as="points">
              <mxPoint x="1190" y="1545" />
              <mxPoint x="1190" y="1545" />
            </Array>
          </mxGeometry>
        </mxCell>
        <mxCell id="9hDXFsLS36bgd5yLtAdr-213" style="edgeStyle=orthogonalEdgeStyle;rounded=0;orthogonalLoop=1;jettySize=auto;html=1;startArrow=ERoneToMany;startFill=0;endArrow=ERmandOne;endFill=0;jumpStyle=arc;fontStyle=0" parent="1" source="9hDXFsLS36bgd5yLtAdr-184" target="9hDXFsLS36bgd5yLtAdr-2" edge="1">
          <mxGeometry relative="1" as="geometry">
            <Array as="points">
              <mxPoint x="890" y="1575" />
              <mxPoint x="890" y="1240" />
              <mxPoint x="230" y="1240" />
              <mxPoint x="230" y="1315" />
            </Array>
            <mxPoint x="950" y="1565" as="sourcePoint" />
            <mxPoint x="550" y="1320" as="targetPoint" />
          </mxGeometry>
        </mxCell>
        <mxCell id="9hDXFsLS36bgd5yLtAdr-207" style="edgeStyle=orthogonalEdgeStyle;rounded=0;orthogonalLoop=1;jettySize=auto;html=1;startArrow=ERzeroToMany;startFill=0;endArrow=ERmandOne;endFill=0;jumpStyle=arc;fontStyle=0" parent="1" source="9hDXFsLS36bgd5yLtAdr-99" target="9hDXFsLS36bgd5yLtAdr-37" edge="1">
          <mxGeometry relative="1" as="geometry">
            <Array as="points">
              <mxPoint x="250" y="1905" />
              <mxPoint x="250" y="1620" />
              <mxPoint x="-60" y="1620" />
              <mxPoint x="-60" y="1695" />
            </Array>
          </mxGeometry>
        </mxCell>
      </root>
    </mxGraphModel>
  </diagram>
</mxfile>
